<svg width="16" height="20" viewBox="0 0 16 20" fill="none" xmlns="http://www.w3.org/2000/svg">
<path d="M5.86112 18.6138C5.91451 18.6191 5.96817 18.6239 6.02194 18.6284C6.61147 18.6793 7.214 18.7102 7.81874 18.7102C8.41391 18.7102 9.00684 18.6793 9.5867 18.6282L9.5896 18.628C9.63566 18.6236 9.68677 18.6195 9.74099 18.6152C9.60268 18.7751 9.4437 18.9183 9.26704 19.0407C8.83742 19.3386 8.32442 19.4993 7.79775 19.5002L5.86112 18.6138ZM5.86112 18.6138C5.90165 18.6593 5.94392 18.7024 5.98779 18.743L5.99698 18.7515L6.00574 18.7605C6.4654 19.2302 7.12553 19.5 7.79768 19.5002L5.86112 18.6138ZM14.8159 12.7508L14.8172 12.753C15.1314 13.2614 15.186 13.8583 14.9783 14.4017C14.7676 14.9531 14.3333 15.372 13.77 15.5545L13.77 15.5545L13.7673 15.5554C11.8523 16.188 9.83644 16.5002 7.81874 16.5002C5.80105 16.5002 3.78603 16.1881 1.87237 15.5461L1.87138 15.5458C1.24199 15.3361 0.794578 14.9139 0.611322 14.4094L0.611339 14.4094L0.609866 14.4055C0.415885 13.8852 0.476469 13.3047 0.81179 12.7503C0.812022 12.7499 0.812254 12.7495 0.812486 12.7491L1.83531 11.0816L1.83537 11.0816L1.83943 11.0747C1.97718 10.8419 2.0929 10.5303 2.17382 10.2368C2.25461 9.94383 2.31477 9.61798 2.31477 9.35016V6.82016C2.31477 4.70299 3.56427 2.86051 5.38176 1.96907L5.52036 1.90109L5.59651 1.7668C6.03516 0.993267 6.86301 0.500159 7.78831 0.500159V0.500186L7.79346 0.500133C8.23679 0.495573 8.67283 0.608536 9.05593 0.826688C9.43897 1.04481 9.75466 1.35985 9.97074 1.73815L10.0492 1.87556L10.1925 1.94279C11.1298 2.38268 11.9206 3.07476 12.4741 3.93803C13.0276 4.80123 13.3216 5.80065 13.3227 6.8207V9.35016C13.3227 9.61797 13.3829 9.94376 13.4635 10.2375C13.5445 10.5325 13.6596 10.8443 13.795 11.0796L13.7949 11.0797L13.8017 11.0908L14.8159 12.7508Z" stroke="#595959"/>
</svg>
