<svg width="29" height="29" viewBox="0 0 29 29" fill="none" xmlns="http://www.w3.org/2000/svg">
<g filter="url(#filter0_d_107_7570)">
<path d="M5 5H6.01212C6.36992 5 6.71634 5.12578 6.99079 5.35534C7.26525 5.5849 7.45028 5.90363 7.51352 6.25581L9.42373 16.8983" stroke="black" stroke-linecap="round" stroke-linejoin="round"/>
<path d="M21.6271 19.9491H9.42372C9.01915 19.9491 8.63115 19.7884 8.34508 19.5023C8.05901 19.2162 7.89829 18.8282 7.89829 18.4237C7.89829 18.0191 8.05901 17.6311 8.34508 17.345C8.63115 17.059 9.01915 16.8982 9.42372 16.8982H19.9491C20.2892 16.8983 20.6196 16.7848 20.8877 16.5756C21.1559 16.3665 21.3465 16.0737 21.4292 15.7439L22.9546 9.94726C23.011 9.72228 23.0154 9.4874 22.9674 9.26048C22.9194 9.03355 22.8203 8.82056 22.6776 8.63771C22.5349 8.45486 22.3523 8.30695 22.1439 8.20525C21.9354 8.10354 21.7065 8.05071 21.4746 8.05078H7.82202" stroke="black" stroke-linecap="round" stroke-linejoin="round"/>
<path d="M12.4746 21.4746C12.4746 21.7763 12.3851 22.0713 12.2175 22.3221C12.0499 22.573 11.8116 22.7685 11.5329 22.8839C11.2542 22.9994 10.9474 23.0296 10.6515 22.9708C10.3556 22.9119 10.0838 22.7666 9.87049 22.5533C9.65716 22.3399 9.51188 22.0681 9.45302 21.7722C9.39416 21.4763 9.42437 21.1696 9.53982 20.8909C9.65528 20.6122 9.8508 20.3739 10.1017 20.2063C10.3525 20.0387 10.6474 19.9492 10.9491 19.9492C11.3537 19.9492 11.7417 20.1099 12.0278 20.396C12.3138 20.6821 12.4746 21.0701 12.4746 21.4746Z" stroke="black" stroke-linecap="round" stroke-linejoin="round"/>
<path d="M21.6271 21.4746C21.6271 21.7763 21.5377 22.0713 21.3701 22.3221C21.2024 22.573 20.9642 22.7685 20.6855 22.8839C20.4067 22.9994 20.1 23.0296 19.8041 22.9708C19.5082 22.9119 19.2364 22.7666 19.0231 22.5533C18.8097 22.3399 18.6645 22.0681 18.6056 21.7722C18.5467 21.4763 18.577 21.1696 18.6924 20.8909C18.8079 20.6122 19.0034 20.3739 19.2542 20.2063C19.5051 20.0387 19.8 19.9492 20.1017 19.9492C20.5063 19.9492 20.8943 20.1099 21.1804 20.396C21.4664 20.6821 21.6271 21.0701 21.6271 21.4746Z" stroke="black" stroke-linecap="round" stroke-linejoin="round"/>
<path d="M14 12.4746H17.0508" stroke="black" stroke-linecap="round" stroke-linejoin="round"/>
<path d="M15.5254 10.9492V14.0001" stroke="black" stroke-linecap="round" stroke-linejoin="round"/>
</g>
<defs>
<filter id="filter0_d_107_7570" x="1.5" y="1.5" width="27.0004" height="27" filterUnits="userSpaceOnUse" color-interpolation-filters="sRGB">
<feFlood flood-opacity="0" result="BackgroundImageFix"/>
<feColorMatrix in="SourceAlpha" type="matrix" values="0 0 0 0 0 0 0 0 0 0 0 0 0 0 0 0 0 0 127 0" result="hardAlpha"/>
<feOffset dx="1" dy="1"/>
<feGaussianBlur stdDeviation="2"/>
<feComposite in2="hardAlpha" operator="out"/>
<feColorMatrix type="matrix" values="0 0 0 0 0 0 0 0 0 0 0 0 0 0 0 0 0 0 0.04 0"/>
<feBlend mode="normal" in2="BackgroundImageFix" result="effect1_dropShadow_107_7570"/>
<feBlend mode="normal" in="SourceGraphic" in2="effect1_dropShadow_107_7570" result="shape"/>
</filter>
</defs>
</svg>
