<svg width="20" height="20" viewBox="0 0 20 20" fill="none" xmlns="http://www.w3.org/2000/svg">
<path d="M6.37991 15.7092C5.22674 15.7092 4.29195 16.6698 4.29195 17.8546C4.29195 19.0395 5.22678 20 6.37991 20C7.53309 20 8.46787 19.0395 8.46787 17.8546C8.46792 16.6698 7.53309 15.7092 6.37991 15.7092ZM6.37991 19.0465C5.73927 19.0465 5.21995 18.5129 5.21995 17.8547C5.21995 17.1964 5.73927 16.6628 6.37991 16.6628C7.02056 16.6628 7.53988 17.1964 7.53988 17.8547C7.53993 18.5129 7.02056 19.0465 6.37991 19.0465ZM15.1958 15.7092C14.0427 15.7092 13.1079 16.6698 13.1079 17.8546C13.1079 19.0395 14.0427 20 15.1958 20C16.349 20 17.2838 19.0395 17.2838 17.8546C17.2838 16.6698 16.349 15.7092 15.1958 15.7092ZM15.1958 19.0465C14.5552 19.0465 14.0359 18.5129 14.0359 17.8547C14.0359 17.1964 14.5552 16.6628 15.1958 16.6628C15.8365 16.6628 16.3558 17.1964 16.3558 17.8547C16.3559 18.5129 15.8365 19.0465 15.1958 19.0465ZM19.9054 3.19432C19.8088 3.08589 19.6766 3.01797 19.5342 3.0036L4.43117 2.78906L4.01357 1.47796C3.71938 0.601505 2.92061 0.00980987 2.01838 0H0.463996C0.20773 0 0 0.213445 0 0.47676C0 0.740075 0.20773 0.95352 0.463996 0.95352H2.01838C2.2647 0.959118 2.50345 1.04207 2.70254 1.19123C2.90162 1.34038 3.05148 1.54859 3.13198 1.78786L6.07835 10.9178L5.84638 11.4661C5.71883 11.804 5.67125 12.1683 5.70755 12.5289C5.74386 12.8894 5.863 13.236 6.05517 13.5399C6.24541 13.8384 6.50292 14.0852 6.80584 14.2595C7.10876 14.4338 7.44814 14.5304 7.79517 14.5411H16.8199C17.0762 14.5411 17.2839 14.3277 17.2839 14.0644C17.2839 13.8011 17.0762 13.5876 16.8199 13.5876H7.79513C7.59931 13.5826 7.40778 13.5277 7.23772 13.4278C7.06765 13.328 6.92437 13.1863 6.82073 13.0155C6.718 12.8464 6.65416 12.6554 6.63406 12.4572C6.61396 12.2589 6.63814 12.0585 6.70474 11.8713L6.89036 11.4422L16.6575 10.3933C17.7303 10.2719 18.6128 9.47013 18.8615 8.39091L19.9751 3.59949C19.9997 3.53172 20.0062 3.4584 19.994 3.38715C19.9817 3.3159 19.9511 3.24932 19.9054 3.19432ZM17.9566 8.17641C17.806 8.87113 17.232 9.38358 16.5415 9.43983L6.89036 10.4649L4.73277 3.74258L18.9542 3.95712L17.9566 8.17641Z" fill="#909090"/>
</svg>
