<svg width="20" height="26" viewBox="0 0 20 26" fill="none" xmlns="http://www.w3.org/2000/svg">
<path d="M0.845086 6C0.620955 6 0.406004 6.09161 0.24752 6.25469C0.0890356 6.41776 0 6.63894 0 6.86957C0 7.10019 0.0890356 7.32137 0.24752 7.48444C0.406004 7.64752 0.620955 7.73913 0.845086 7.73913H2.34934C2.47218 7.73935 2.59185 7.77925 2.69146 7.8532C2.79108 7.92716 2.86562 8.03143 2.90456 8.1513L5.69081 16.7539C5.81503 17.1365 5.83025 17.547 5.7356 17.9383L5.50658 18.8835C5.16939 20.2696 6.21814 21.6522 7.60577 21.6522H17.7468C17.9709 21.6522 18.1859 21.5606 18.3444 21.3975C18.5028 21.2344 18.5919 21.0132 18.5919 20.7826C18.5919 20.552 18.5028 20.3308 18.3444 20.1677C18.1859 20.0047 17.9709 19.913 17.7468 19.913H7.60577C7.27619 19.913 7.06492 19.6348 7.1452 19.307L7.31844 18.5957C7.34763 18.4753 7.41503 18.3685 7.50995 18.2921C7.60488 18.2157 7.72188 18.1741 7.84239 18.1739H16.9017C17.0793 18.1741 17.2524 18.1168 17.3965 18.01C17.5407 17.9033 17.6484 17.7525 17.7045 17.5791L19.9567 10.6226C19.999 10.4919 20.0105 10.3527 19.9903 10.2165C19.9701 10.0803 19.9187 9.95097 19.8404 9.83921C19.762 9.72746 19.659 9.63645 19.5398 9.57369C19.4206 9.51094 19.2886 9.47823 19.1547 9.47826H5.53954C5.41655 9.47822 5.29669 9.43841 5.19691 9.36444C5.09712 9.29048 5.02246 9.1861 4.98347 9.06609L4.18233 6.59478C4.12626 6.42156 4.01862 6.27089 3.87468 6.16414C3.73073 6.05738 3.55778 5.99996 3.38034 6H0.845086ZM6.76068 22.5217C6.31242 22.5217 5.88252 22.705 5.56555 23.0311C5.24858 23.3573 5.07051 23.7996 5.07051 24.2609C5.07051 24.7221 5.24858 25.1645 5.56555 25.4906C5.88252 25.8168 6.31242 26 6.76068 26C7.20895 26 7.63885 25.8168 7.95582 25.4906C8.27279 25.1645 8.45086 24.7221 8.45086 24.2609C8.45086 23.7996 8.27279 23.3573 7.95582 23.0311C7.63885 22.705 7.20895 22.5217 6.76068 22.5217ZM16.9017 22.5217C16.4535 22.5217 16.0236 22.705 15.7066 23.0311C15.3896 23.3573 15.2115 23.7996 15.2115 24.2609C15.2115 24.7221 15.3896 25.1645 15.7066 25.4906C16.0236 25.8168 16.4535 26 16.9017 26C17.35 26 17.7799 25.8168 18.0968 25.4906C18.4138 25.1645 18.5919 24.7221 18.5919 24.2609C18.5919 23.7996 18.4138 23.3573 18.0968 23.0311C17.7799 22.705 17.35 22.5217 16.9017 22.5217Z" fill="#957255"/>
<circle cx="10" cy="2" r="2" fill="#957255"/>
</svg>
