<svg width="203" height="120" viewBox="0 0 203 120" fill="none" xmlns="http://www.w3.org/2000/svg">
<g opacity="0.7" clip-path="url(#clip0_1_4363)">
<path d="M26.8335 119.972C26.8335 119.972 -0.693175 86.7493 19.2496 43.3351C28.8177 22.5065 54.296 17.6186 62.023 21.881C72.2076 27.5012 85.7159 12.3179 114.914 1.89386C136.859 -5.94107 186.533 10.0341 170.356 59.1721C160.543 88.979 198.316 81.1378 192.458 119.232L26.8335 119.972Z" fill="#F5F0EC"/>
<path d="M143.051 23.6504H89.5552V118.654H143.051V23.6504Z" fill="#BDD8FF"/>
<path d="M125.392 23.6504H90.4253V118.654H125.392V23.6504Z" fill="#AFCDFB"/>
<path d="M66.2974 13.541V119.135H89.5552V22.6168L66.2974 13.541Z" fill="#956339"/>
<path d="M66.2972 13.541H64.0016V119.134H66.2972V13.541Z" fill="#67472B"/>
<path d="M140.883 111.327H91.7224V119.435H140.883V111.327Z" fill="#957051"/>
<path d="M110.198 119.435H91.7231V111.327H105.297L110.198 119.435Z" fill="#86603F"/>
<path d="M140.884 103.219H102.276V111.327H140.884V103.219Z" fill="#957051"/>
<path d="M140.884 95.1116H112.207V103.22H140.884V95.1116Z" fill="#997B61"/>
<path d="M140.884 87.0039H122.145V95.112H140.884V87.0039Z" fill="#997B61"/>
<path d="M89.5552 22.751V119.137H143.051V22.751H89.5552ZM140.881 116.856H91.7232V25.0317H140.883L140.881 116.856Z" fill="#714D2D"/>
<path d="M134.264 95.112H122.145V87.0039H125.288L134.264 95.112Z" fill="#7D5C40"/>
<path d="M127.645 103.219H112.207V95.1116H119.78L127.645 103.219Z" fill="#876345"/>
<path d="M115.109 111.327H102.276V103.219H109L115.109 111.327Z" fill="#855F3F"/>
<path d="M70.9682 64.7188H70.3978C69.7682 64.7188 69.2578 65.2307 69.2578 65.8622V73.1541C69.2578 73.7856 69.7682 74.2976 70.3978 74.2976H70.9682C71.5978 74.2976 72.1081 73.7856 72.1081 73.1541V65.8622C72.1081 65.2307 71.5978 64.7188 70.9682 64.7188Z" fill="#77A4E5"/>
<path d="M93.4108 63.493C93.608 62.5646 93.1464 62.3401 93.1464 62.3401C93.1464 62.3401 83.8897 59.262 83.1182 58.8916C82.3468 58.5211 76.46 50.337 76.46 50.337C76.46 50.337 74.2364 46.9622 71.9752 47.3185C70.0106 47.6254 69.0662 48.9941 68.6171 50.3629C68.3582 51.161 68.3452 52.0189 68.5797 52.8246C68.8141 53.6303 69.2853 54.3464 69.9316 54.8795C72.8914 57.3353 78.8267 62.1886 80.2914 62.8557C83.5525 64.3399 92.8232 64.7197 92.8232 64.7197C93.1105 64.3616 93.3116 63.9418 93.4108 63.493Z" fill="#76461B"/>
<path d="M92.6997 62.8054C92.6997 62.8054 95.1251 62.0088 95.5429 61.9993C95.9607 61.9899 97.4763 62.4702 97.5068 62.5833C97.5373 62.6963 97.477 62.803 97.2267 62.843C96.9763 62.8831 96.1376 62.8532 96.1994 62.949C96.2612 63.0447 98.6921 63.2959 98.7625 63.7754C98.833 64.2549 97.6069 65.2721 96.5069 65.4337C95.4068 65.5954 93.1151 64.5076 92.9273 64.5084C91.3344 64.5163 92.6997 62.8054 92.6997 62.8054Z" fill="#ED975D"/>
<path d="M67.4927 46.3838C67.4927 46.3838 69.8243 49.1598 72.7943 47.9982C72.7943 47.9982 73.4335 46.4482 73.4421 45.3055C73.4421 45.165 73.4421 45.0292 73.4476 44.8989C73.4632 43.6126 73.5063 42.8906 73.5063 42.8906C73.3717 42.834 68.9683 41.0203 68.9683 41.171C69.0426 44.6572 67.4927 46.3838 67.4927 46.3838Z" fill="#FFB27D"/>
<path d="M56.2057 119.216H53.2036C52.5777 119.216 51.8735 118.576 51.7014 117.404C51.5292 116.232 50.2344 115.592 49.9543 114.633C49.6742 113.674 51.1075 112.324 51.1075 112.324L51.3469 112.01L51.5965 111.684L53.9727 112.252C53.9727 112.252 54.0314 112.827 54.0682 113.559C54.0932 114.088 54.1073 114.7 54.0775 115.236C54.0079 116.515 54.4296 117.892 55.5477 118.14C56.6658 118.387 56.2057 119.216 56.2057 119.216Z" fill="#2C3A64"/>
<path d="M77.0874 119.245H69.1365C69.0783 119.236 69.0215 119.219 68.9675 119.195C68.4371 118.92 68.6029 116.821 68.6671 116.173C68.6788 116.053 68.6874 115.982 68.6874 115.982C68.6874 115.982 71.4838 113.673 71.8687 115.441C71.8804 115.496 71.8945 115.55 71.9094 115.604C72.3953 117.259 74.5649 118.01 75.8214 118.219C76.7752 118.381 77.024 118.957 77.0874 119.245Z" fill="#2C3A64"/>
<path d="M75.485 73.1237C75.485 73.1237 75.0601 78.4377 74.561 84.8254C73.8826 93.5025 73.0673 104.161 72.9868 106.181C72.8467 109.686 72.2873 115.295 72.2873 115.295C72.2873 115.295 70.9572 116.629 68.3033 116.066C68.3033 116.066 65.9357 108.061 65.2597 99.5849C65.2495 99.446 65.2386 99.3055 65.2284 99.1658C64.6025 90.5421 63.6213 72.3828 63.6213 72.3828L75.485 73.1237Z" fill="black"/>
<path d="M75.4851 73.1246C75.4851 73.1246 75.0603 78.4387 74.5611 84.8264L65.2598 99.5898C65.2496 99.4509 65.2387 99.3104 65.2285 99.1707C64.6026 90.547 63.6215 72.3877 63.6215 72.3877L75.4851 73.1246Z" fill="black"/>
<path d="M73.5462 73.7557C73.5462 73.7557 65.8927 93.002 60.8602 102.045C55.8278 111.088 54.2551 113.614 54.2551 113.614C54.2551 113.614 51.372 112.456 51.1099 111.668C51.1099 111.668 53.0338 94.2075 56.4044 89.9506C58.3088 87.5458 60.5457 80.3286 60.6505 77.8046C60.7554 75.2806 61.332 70.2852 61.332 70.2852L73.5462 73.7557Z" fill="black"/>
<path d="M77.1007 57.8539C77.071 59.502 76.9755 61.3495 76.8472 63.2284L76.8237 63.5627C76.7416 64.7266 76.6524 65.8937 76.5499 67.0309C76.5082 67.4876 76.4646 67.9376 76.4192 68.3808L76.4122 68.4412C76.4122 68.6068 76.3887 68.7865 76.3707 68.9506C75.9521 73.2122 75.514 76.5791 75.4318 76.6309C75.3367 76.6973 75.2208 76.7269 75.1056 76.7141C73.9914 76.5736 70.667 76.8271 67.9458 76.233C65.6494 75.7472 63.6715 74.8266 61.5762 73.5842C61.2984 73.4194 60.6647 72.9822 60.7155 72.6557C60.7656 72.2971 60.8595 71.7783 60.9784 71.1269C61.3915 68.8603 62.1035 64.9613 62.3469 60.3975C62.3946 59.5475 62.4634 58.7078 62.5526 57.8861C62.7626 55.8564 63.1344 53.8468 63.6644 51.8766C64.5978 48.5066 65.9686 45.9261 67.6891 44.916C67.9137 44.7897 69.1233 45.5619 70.2343 46.2769C71.26 46.9362 72.3398 47.119 73.3898 47.0272L74.3146 48.0522C75.4342 49.3574 76.6258 51.0957 76.9513 53.5656C76.9753 53.7487 76.9961 53.9428 77.0139 54.1479C77.1046 55.1533 77.1258 56.4286 77.1007 57.8539Z" fill="#683A10"/>
<path d="M56.0203 70.5512C56.0203 70.5512 55.8223 72.9544 55.6768 73.3232C55.5313 73.6921 54.5642 74.8364 54.4523 74.8207C54.3405 74.805 54.2732 74.7139 54.3295 74.4808C54.3858 74.2477 54.7207 73.5281 54.6143 73.5469C54.5079 73.5657 53.4016 75.5922 52.9603 75.4784C52.519 75.3646 52.0879 73.9228 52.35 72.9057C52.6121 71.8886 54.3937 70.2899 54.4625 70.1258C55.0415 68.7351 56.0203 70.5512 56.0203 70.5512Z" fill="#ED975D"/>
<path d="M55.2014 71.1595C56.0487 71.4326 56.1848 71.3706 56.1848 71.3706C56.1848 71.3706 60.3074 63.841 60.7228 63.1519C61.1383 62.4629 69.478 54.708 69.478 54.708L67.3373 46.6973C67.3373 46.6973 57.8553 59.0104 56.8311 60.7778C55.1396 63.6982 54.1475 70.4814 54.1475 70.4814C54.4353 70.794 54.7981 71.0274 55.2014 71.1595Z" fill="#683A10"/>
<path d="M69.2258 43.0477C69.6828 44.1206 73.3343 46.2263 73.3343 46.2263L73.7638 44.5475L69.2258 43.0477Z" fill="#ED975D"/>
<path d="M74.26 44.5456C74.26 44.5456 68.2088 44.741 68.1455 40.9589C68.0821 37.1769 67.2598 34.6552 71.1186 34.3664C74.9774 34.0776 75.7544 35.513 76.0814 36.7703C76.4085 38.0276 75.8326 44.3981 74.26 44.5456Z" fill="#FFB27D"/>
<path d="M68.1476 41.0892C68.1476 41.0892 67.4904 40.915 67.4896 39.2276C67.4888 37.5403 65.8653 34.4402 67.0984 34.1459C68.3315 33.8516 68.585 33.9497 68.585 33.9497C68.585 33.9497 68.3111 32.1838 70.5801 32.4193C72.8491 32.6547 76.1157 34.087 76.9176 33.5965C77.7196 33.106 77.8761 37.2656 75.7831 37.1871C73.6902 37.1086 70.717 35.4165 70.0324 36.7437C69.3478 38.0708 69.6999 39.6004 69.3478 39.6004C68.9957 39.6004 68.8087 38.2819 68.3503 38.4428C68.0913 38.5346 68.1476 41.0892 68.1476 41.0892Z" fill="#1E3D70"/>
<path d="M62.328 61.4838L67.4927 56.5652L61.8132 66.9587L62.328 61.4838Z" fill="#512D0E"/>
<path d="M202.488 119.113H0.312241C0.149335 119.113 0.0172729 119.246 0.0172729 119.409V119.706C0.0172729 119.87 0.149335 120.002 0.312241 120.002H202.488C202.651 120.002 202.783 119.87 202.783 119.706V119.409C202.783 119.246 202.651 119.113 202.488 119.113Z" fill="#2E3552"/>
<path d="M125.297 12.9422H108.734C108.381 12.9422 108.094 13.2293 108.094 13.5834V18.1087C108.094 18.4628 108.381 18.7499 108.734 18.7499H125.297C125.65 18.7499 125.936 18.4628 125.936 18.1087V13.5834C125.936 13.2293 125.65 12.9422 125.297 12.9422Z" fill="#5EA04E"/>
<path d="M113.536 17.2345C113.58 17.2351 113.622 17.2529 113.653 17.2839C113.684 17.315 113.701 17.357 113.702 17.4009V17.8388C113.701 17.8828 113.684 17.9247 113.653 17.9558C113.622 17.9869 113.58 18.0046 113.536 18.0052H110.837C110.794 18.0046 110.752 17.9869 110.721 17.9558C110.69 17.9247 110.672 17.8828 110.672 17.8388V13.8551C110.671 13.8332 110.675 13.8115 110.684 13.7914C110.692 13.7712 110.705 13.7531 110.721 13.7381C110.736 13.7222 110.754 13.7096 110.774 13.7011C110.794 13.6925 110.816 13.6883 110.837 13.6887H113.487C113.508 13.6883 113.53 13.6925 113.55 13.7011C113.57 13.7096 113.588 13.7222 113.603 13.7381C113.619 13.7531 113.632 13.7712 113.64 13.7914C113.649 13.8115 113.653 13.8332 113.653 13.8551V14.293C113.652 14.3369 113.634 14.3789 113.603 14.41C113.572 14.441 113.53 14.4588 113.487 14.4594H111.501V15.4404H113.351C113.395 15.4404 113.438 15.4579 113.469 15.4891C113.5 15.5203 113.518 15.5626 113.518 15.6068V16.0447C113.518 16.0665 113.514 16.0881 113.505 16.1082C113.497 16.1283 113.484 16.1465 113.469 16.1617C113.454 16.1777 113.435 16.1904 113.415 16.1989C113.395 16.2074 113.373 16.2116 113.351 16.2111H111.501V17.2314L113.536 17.2345Z" fill="white"/>
<path d="M117.249 18.0051C117.217 18.0082 117.184 18.0043 117.153 17.9936C117.122 17.9829 117.094 17.9657 117.071 17.9431C117.034 17.9023 117.008 17.8717 116.993 17.8513L116.015 16.488L115.044 17.8513C115.027 17.8717 115.001 17.9023 114.965 17.9431C114.942 17.9657 114.914 17.9829 114.883 17.9936C114.852 18.0043 114.819 18.0082 114.787 18.0051H114.271C114.242 18.0074 114.213 18.0019 114.188 17.989C114.162 17.9762 114.141 17.9566 114.125 17.9323C114.11 17.908 114.102 17.8801 114.101 17.8514C114.101 17.8227 114.108 17.7944 114.123 17.7696L115.531 15.8021L114.184 13.9185C114.173 13.8975 114.167 13.8741 114.166 13.8502C114.166 13.8061 114.184 13.7641 114.215 13.733C114.246 13.7019 114.288 13.6842 114.332 13.6838H114.848C114.88 13.6807 114.913 13.6846 114.944 13.6953C114.975 13.706 115.003 13.7233 115.026 13.7458C115.063 13.7867 115.09 13.8173 115.105 13.8384L116.031 15.1475L116.953 13.8471C116.969 13.8259 116.996 13.7953 117.032 13.7545C117.055 13.732 117.083 13.7148 117.114 13.7041C117.144 13.6935 117.177 13.6895 117.209 13.6925H117.726C117.77 13.6929 117.812 13.7105 117.843 13.7416C117.874 13.7727 117.892 13.8148 117.892 13.8589C117.891 13.8828 117.885 13.9061 117.874 13.9271L116.515 15.8327L117.91 17.7751C117.922 17.7958 117.928 17.819 117.929 17.8426C117.928 17.8866 117.911 17.9285 117.88 17.9596C117.849 17.9907 117.807 18.0084 117.763 18.009L117.249 18.0051Z" fill="white"/>
<path d="M118.706 18.0052C118.684 18.0057 118.662 18.0015 118.642 17.993C118.622 17.9845 118.604 17.9718 118.589 17.9558C118.573 17.9408 118.56 17.9227 118.552 17.9025C118.543 17.8824 118.539 17.8607 118.539 17.8388V13.855C118.54 13.811 118.558 13.7689 118.589 13.7378C118.62 13.7067 118.662 13.6891 118.706 13.6887H119.204C119.247 13.6893 119.289 13.707 119.32 13.7381C119.351 13.7691 119.369 13.8111 119.369 13.855V17.8388C119.369 17.8828 119.351 17.9247 119.32 17.9558C119.289 17.9869 119.247 18.0046 119.204 18.0052H118.706Z" fill="white"/>
<path d="M123.193 13.6887C123.215 13.6882 123.237 13.6924 123.257 13.7009C123.277 13.7094 123.295 13.7221 123.31 13.7381C123.326 13.7534 123.338 13.7716 123.347 13.7917C123.355 13.8118 123.359 13.8333 123.359 13.8551V14.293C123.359 14.3371 123.341 14.3793 123.31 14.4104C123.279 14.4416 123.237 14.4592 123.193 14.4594H122.087V17.8389C122.086 17.8828 122.069 17.9248 122.038 17.9558C122.007 17.9869 121.965 18.0046 121.921 18.0052H121.423C121.379 18.0046 121.337 17.9869 121.306 17.9558C121.275 17.9248 121.257 17.8828 121.257 17.8389V14.4594H120.15C120.107 14.4588 120.065 14.4411 120.034 14.41C120.003 14.3789 119.985 14.3369 119.984 14.293V13.8551C119.985 13.8111 120.003 13.7692 120.034 13.7381C120.065 13.707 120.107 13.6893 120.15 13.6887H123.193Z" fill="white"/>
</g>
<defs>
<clipPath id="clip0_1_4363">
<rect width="202.8" height="120" fill="white"/>
</clipPath>
</defs>
</svg>
