<svg width="18" height="25" viewBox="0 0 18 25" fill="none" xmlns="http://www.w3.org/2000/svg">
<path d="M9 0C5.65057 0 2.92756 2.66263 2.92756 5.9378C2.92756 9.15046 5.49716 11.7506 8.84659 11.8631C8.94886 11.8506 9.05114 11.8506 9.12784 11.8631H9.21733C10.7889 11.8118 12.2786 11.1649 13.3712 10.0591C14.4639 8.95337 15.074 7.47542 15.0724 5.9378C15.0724 2.66263 12.3494 0 9 0ZM15.4943 15.187C11.9276 12.8619 6.11079 12.8619 2.51847 15.187C0.894886 16.2496 0 17.6871 0 19.2247C0 20.7623 0.894886 22.1874 2.50568 23.2374C4.29545 24.4125 6.64773 25 9 25C11.3523 25 13.7045 24.4125 15.4943 23.2374C17.1051 22.1749 18 20.7498 18 19.1997C17.9872 17.6621 17.1051 16.2371 15.4943 15.187ZM11.4801 20.3248C11.8509 20.6873 11.8509 21.2873 11.4801 21.6498C11.2884 21.8373 11.0455 21.9248 10.8026 21.9248C10.5597 21.9248 10.3168 21.8373 10.125 21.6498L9 20.5498L7.875 21.6498C7.68324 21.8373 7.44034 21.9248 7.19744 21.9248C6.95455 21.9248 6.71165 21.8373 6.51989 21.6498C6.34188 21.4732 6.24209 21.2353 6.24209 20.9873C6.24209 20.7393 6.34188 20.5014 6.51989 20.3248L7.64489 19.2247L6.51989 18.1247C6.34188 17.9481 6.24209 17.7101 6.24209 17.4621C6.24209 17.2142 6.34188 16.9762 6.51989 16.7996C6.89062 16.4371 7.50426 16.4371 7.875 16.7996L9 17.8996L10.125 16.7996C10.4957 16.4371 11.1094 16.4371 11.4801 16.7996C11.8509 17.1621 11.8509 17.7621 11.4801 18.1247L10.3551 19.2247L11.4801 20.3248Z" fill="#957255"/>
</svg>
