<svg width="28" height="28" viewBox="0 0 28 28" fill="none" xmlns="http://www.w3.org/2000/svg">
<path d="M19.5049 6.96682H16.8879V6.09739C16.8873 5.80653 16.7768 5.52776 16.5806 5.32209C16.3844 5.11642 16.1184 5.00061 15.8409 5H11.6602C11.3825 5.00036 11.1163 5.11606 10.9199 5.32175C10.7235 5.52745 10.6129 5.80636 10.6123 6.09739V6.96682H7.99533C7.73144 6.96713 7.47844 7.07714 7.29185 7.27273C7.10525 7.46832 7.00029 7.7335 7 8.01011V9.13772C7.00034 9.41431 7.10531 9.67946 7.2919 9.87504C7.47849 10.0706 7.73145 10.1806 7.99533 10.181H8.00837V21.5478C8.00876 21.9328 8.15482 22.3019 8.41452 22.5741C8.67422 22.8464 9.02634 22.9995 9.39363 23H18.1066C18.4738 22.9995 18.826 22.8464 19.0857 22.5741C19.3454 22.3019 19.4914 21.9328 19.4918 21.5478V10.181H19.5049C19.7687 10.1806 20.0217 10.0706 20.2082 9.87503C20.3948 9.67945 20.4997 9.41429 20.5 9.13772V8.01011C20.4998 7.73352 20.3948 7.46834 20.2083 7.27274C20.0217 7.07715 19.7687 6.96713 19.5049 6.96682ZM11.2552 6.09739C11.2555 5.98499 11.2983 5.87732 11.3742 5.79794C11.4501 5.71856 11.5529 5.67393 11.6602 5.67383H15.84C15.9471 5.67419 16.0497 5.71893 16.1254 5.79828C16.2011 5.87764 16.2438 5.98516 16.2441 6.09739V6.96682H11.2552V6.09739ZM18.849 21.5478C18.8488 21.7541 18.7705 21.952 18.6313 22.0979C18.4921 22.2438 18.3034 22.3259 18.1066 22.3262H9.39363C9.19678 22.3259 9.00806 22.2438 8.86887 22.0979C8.72969 21.952 8.65142 21.7541 8.65122 21.5478V10.181H18.849V21.5478ZM19.8571 9.13772C19.8571 9.23565 19.82 9.32957 19.7539 9.39884C19.6879 9.46811 19.5983 9.50707 19.5049 9.50717H7.99533C7.90188 9.50707 7.81228 9.46811 7.7462 9.39885C7.68012 9.32958 7.64295 9.23567 7.64286 9.13772V8.01011C7.64295 7.91215 7.68012 7.81824 7.7462 7.74898C7.81228 7.67971 7.90188 7.64076 7.99533 7.64065H19.5049C19.5983 7.64076 19.6879 7.67972 19.7539 7.74899C19.82 7.81826 19.8571 7.91217 19.8571 8.01011V9.13772Z" fill="#E30000"/>
<path d="M13.7492 20.0717C13.7914 20.0717 13.8332 20.063 13.8722 20.0461C13.9112 20.0292 13.9466 20.0044 13.9765 19.9731C14.0064 19.9418 14.03 19.9046 14.0462 19.8637C14.0623 19.8229 14.0706 19.779 14.0706 19.7348V12.772C14.0706 12.6826 14.0367 12.5969 13.9764 12.5337C13.9162 12.4706 13.8344 12.4351 13.7492 12.4351C13.6639 12.4351 13.5822 12.4706 13.5219 12.5337C13.4616 12.5969 13.4277 12.6826 13.4277 12.772V19.7348C13.4277 19.8241 13.4616 19.9098 13.5219 19.973C13.5822 20.0362 13.6639 20.0717 13.7492 20.0717Z" fill="#E30000"/>
<path d="M16.5664 20.0717C16.6517 20.0717 16.7334 20.0362 16.7937 19.973C16.854 19.9098 16.8879 19.8241 16.8879 19.7348V12.772C16.8879 12.6826 16.854 12.5969 16.7937 12.5337C16.7334 12.4706 16.6517 12.4351 16.5664 12.4351C16.4812 12.4351 16.3994 12.4706 16.3391 12.5337C16.2789 12.5969 16.245 12.6826 16.245 12.772V19.7348C16.245 19.8241 16.2789 19.9098 16.3391 19.973C16.3994 20.0362 16.4812 20.0717 16.5664 20.0717Z" fill="#E30000"/>
<path d="M10.9337 20.0717C11.019 20.0717 11.1007 20.0362 11.161 19.973C11.2213 19.9098 11.2552 19.8241 11.2552 19.7348V12.772C11.2552 12.6826 11.2213 12.5969 11.161 12.5337C11.1007 12.4706 11.019 12.4351 10.9337 12.4351C10.8485 12.4351 10.7667 12.4706 10.7064 12.5337C10.6462 12.5969 10.6123 12.6826 10.6123 12.772V19.7348C10.6123 19.8241 10.6462 19.9098 10.7064 19.973C10.7667 20.0362 10.8485 20.0717 10.9337 20.0717Z" fill="#E30000"/>
</svg>
