<svg width="28" height="28" viewBox="0 0 28 28" fill="none" xmlns="http://www.w3.org/2000/svg">
<circle cx="14" cy="14" r="14" fill="#957255"/>
<path d="M13.1395 6.97559H10.4911C8.31293 6.97559 6.94727 8.51763 6.94727 10.7007V16.5898C6.94727 18.7729 8.30656 20.3149 10.4911 20.3149H16.7414C18.9266 20.3149 20.2859 18.7729 20.2859 16.5898V13.7366" stroke="white" stroke-linecap="round" stroke-linejoin="round"/>
<path fill-rule="evenodd" clip-rule="evenodd" d="M11.2507 12.7357L16.5441 7.4423C17.2036 6.78355 18.2725 6.78355 18.9319 7.4423L19.794 8.30435C20.4534 8.9638 20.4534 10.0334 19.794 10.6921L14.4751 16.011C14.1868 16.2993 13.7958 16.4615 13.3878 16.4615H10.7344L10.801 13.784C10.8109 13.3902 10.9717 13.0148 11.2507 12.7357Z" stroke="white" stroke-linecap="round" stroke-linejoin="round"/>
<path d="M15.7402 8.25977L18.9745 11.494" stroke="white" stroke-linecap="round" stroke-linejoin="round"/>
</svg>
