<svg width="22" height="20" viewBox="0 0 22 20" fill="none" xmlns="http://www.w3.org/2000/svg">
<path d="M10.5963 2.8006L10.9995 3.35246L11.4034 2.80106C12.4262 1.40453 14.0623 0.5 15.884 0.5C18.9726 0.5 21.5 3.07271 21.5 6.2809C21.5 7.56478 21.2995 8.74987 20.9513 9.84902L20.9503 9.85223C20.1159 12.5495 18.4073 14.7199 16.5675 16.3349C14.7252 17.9522 12.7789 18.9883 11.5179 19.4266L11.5178 19.4266L11.5124 19.4285C11.3967 19.4702 11.2109 19.5 11 19.5C10.7891 19.5 10.6033 19.4702 10.4876 19.4285L10.4876 19.4285L10.4821 19.4266C9.22113 18.9883 7.27476 17.9522 5.43249 16.3349C3.59274 14.7199 1.88409 12.5495 1.04966 9.85223L1.04968 9.85222L1.04866 9.84902C0.70052 8.74987 0.5 7.56478 0.5 6.2809C0.5 3.07282 3.02723 0.500177 6.11568 0.5C6.98477 0.501169 7.84207 0.709201 8.61966 1.10812C9.39739 1.50712 10.0744 2.08633 10.5963 2.8006Z" stroke="#909090"/>
</svg>
