<svg width="22" height="28" viewBox="0 0 22 28" fill="none" xmlns="http://www.w3.org/2000/svg">
<path d="M15.884 8C13.893 8 12.111 8.98876 11 10.5056C10.4325 9.729 9.69568 9.09819 8.84789 8.66325C8.00009 8.22831 7.06472 8.00122 6.116 8C2.739 8 0 10.809 0 14.2809C0 15.618 0.209 16.8539 0.572 18C2.31 23.618 7.667 26.9775 10.318 27.8989C10.692 28.0337 11.308 28.0337 11.682 27.8989C14.333 26.9775 19.69 23.618 21.428 18C21.791 16.8539 22 15.618 22 14.2809C22 10.809 19.261 8 15.884 8Z" fill="#957255"/>
<circle cx="11" cy="2" r="2" fill="#957255"/>
</svg>
