<svg width="202" height="202" viewBox="0 0 202 202" fill="none" xmlns="http://www.w3.org/2000/svg">
<g opacity="0.7">
<path d="M170.177 186.785C169.853 186.706 169.565 186.521 169.357 186.26C169.149 185.999 169.034 185.677 169.03 185.343C169.101 185.657 169.239 185.951 169.434 186.208C169.64 186.449 169.892 186.645 170.177 186.785V186.785Z" fill="#FAFAFA"/>
<path d="M177.283 190.906C177.283 190.906 177.316 190.652 177.316 190.24C177.315 189.706 177.225 189.176 177.049 188.672C176.869 188.169 176.607 187.7 176.273 187.282C176.011 186.967 175.817 186.797 175.829 186.785C175.88 186.818 175.927 186.856 175.97 186.898C176.095 187.005 176.211 187.121 176.318 187.246C177.036 188.076 177.414 189.147 177.376 190.244C177.372 190.408 177.354 190.571 177.324 190.732C177.317 190.792 177.303 190.85 177.283 190.906Z" fill="#FAFAFA"/>
<path d="M181.873 181.319C181.825 181.317 181.779 181.306 181.735 181.287C181.614 181.25 181.496 181.201 181.384 181.141C181.007 180.951 180.673 180.684 180.405 180.357C180.137 180.03 179.941 179.65 179.828 179.243C179.795 179.121 179.77 178.997 179.756 178.871C179.75 178.824 179.75 178.777 179.756 178.73C179.756 178.73 179.792 178.928 179.889 179.227C180.148 180.016 180.693 180.68 181.416 181.089C181.687 181.242 181.877 181.303 181.873 181.319Z" fill="#FAFAFA"/>
<path d="M181.21 174.989C181.199 174.956 181.19 174.922 181.186 174.888L181.125 174.597C181.099 174.441 181.064 174.288 181.02 174.136C180.968 173.958 180.923 173.756 180.843 173.538C180.671 173.025 180.455 172.527 180.196 172.051C179.873 171.478 179.495 170.937 179.069 170.435C178.632 169.937 178.15 169.481 177.627 169.074C177.196 168.745 176.736 168.455 176.253 168.209C176.07 168.11 175.881 168.021 175.687 167.943C175.545 167.877 175.4 167.819 175.251 167.769L174.972 167.664L174.875 167.624C175.362 167.751 175.833 167.93 176.281 168.157C176.77 168.397 177.235 168.683 177.671 169.009C178.746 169.815 179.631 170.847 180.265 172.031C180.522 172.513 180.734 173.017 180.899 173.538C181.054 174.009 181.158 174.495 181.21 174.989Z" fill="#FAFAFA"/>
<path d="M169.846 161.354C169.891 161.417 169.93 161.485 169.963 161.556C170.063 161.74 170.15 161.932 170.221 162.129C170.714 163.445 170.722 164.892 170.246 166.214C170.175 166.412 170.09 166.605 169.991 166.791C169.958 166.861 169.921 166.929 169.878 166.993C169.878 166.993 170.019 166.694 170.189 166.185C170.406 165.534 170.515 164.852 170.512 164.165C170.508 163.478 170.391 162.795 170.165 162.145C169.991 161.653 169.829 161.362 169.846 161.354Z" fill="#FAFAFA"/>
<path d="M176.641 160.598C176.867 160.814 177.063 161.06 177.223 161.329C177.614 161.981 177.843 162.716 177.893 163.474C177.943 164.232 177.812 164.991 177.51 165.688C177.388 165.979 177.226 166.251 177.029 166.496C177.009 166.496 177.231 166.202 177.453 165.688C177.736 164.997 177.857 164.25 177.808 163.505C177.759 162.759 177.541 162.034 177.17 161.386C177.007 161.114 176.831 160.851 176.641 160.598V160.598Z" fill="#FAFAFA"/>
<path d="M180.612 151.851L180.556 151.908L180.382 152.066C180.166 152.251 179.959 152.448 179.764 152.655C178.457 154.027 177.601 155.765 177.308 157.637C177.26 157.918 177.227 158.201 177.211 158.485C177.211 158.566 177.211 158.643 177.211 158.719C177.213 158.746 177.213 158.773 177.211 158.8C177.207 158.773 177.207 158.746 177.211 158.719V158.485C177.215 158.198 177.238 157.912 177.279 157.629C177.542 155.734 178.411 153.975 179.756 152.615C179.956 152.41 180.167 152.217 180.39 152.037L180.576 151.896C180.588 151.864 180.608 151.847 180.612 151.851Z" fill="#FAFAFA"/>
<path d="M184.119 156.695C184.106 156.733 184.09 156.77 184.07 156.805C184.038 156.877 183.978 156.978 183.925 157.12C183.755 157.508 183.631 157.915 183.553 158.332C183.345 159.716 183.425 161.129 183.788 162.481C184.192 164.072 184.616 165.499 184.773 166.565C184.878 167.138 184.924 167.72 184.911 168.302C184.906 168.262 184.906 168.221 184.911 168.181C184.911 168.1 184.911 167.983 184.891 167.834C184.859 167.412 184.805 166.993 184.729 166.577C184.555 165.515 184.107 164.097 183.719 162.501C183.35 161.138 183.278 159.712 183.509 158.32C183.593 157.9 183.729 157.493 183.913 157.108C183.973 156.966 184.042 156.828 184.119 156.695V156.695Z" fill="#FAFAFA"/>
<path d="M163.305 186.543C163.305 186.543 163.305 186.494 163.305 186.398L163.345 185.994C163.386 185.626 163.426 185.097 163.458 184.442C163.625 181.02 163.161 177.596 162.089 174.342C161.887 173.72 161.685 173.219 161.568 172.88C161.511 172.726 161.463 172.597 161.418 172.476C161.399 172.43 161.383 172.382 161.37 172.334C161.663 172.981 161.922 173.643 162.145 174.318C163.256 177.574 163.722 181.016 163.519 184.45C163.483 185.151 163.412 185.849 163.305 186.543V186.543Z" fill="#FAFAFA"/>
<path d="M153.641 109.452C154.045 110.724 155.584 111.233 156.918 111.359C158.251 111.484 159.709 111.439 160.78 112.247C162.182 113.302 162.36 115.403 163.608 116.631C165.099 118.081 167.531 117.843 169.393 118.764C170.936 119.527 171.995 121.067 172.504 122.711C172.953 124.379 173.107 126.113 172.956 127.834C172.855 129.975 172.552 132.241 171.191 133.894C168.937 136.669 164.788 136.722 161.228 136.415C158.037 136.124 154.473 135.485 152.635 132.859C151.48 131.207 151.266 129.094 151.088 127.086C150.695 122.683 150.304 118.278 149.916 113.871" fill="#263238"/>
<path d="M172.508 130.189C172.554 130.096 172.592 129.998 172.621 129.898C172.713 129.614 172.786 129.324 172.839 129.03C173.045 127.945 173.037 126.83 172.815 125.749C172.496 124.129 171.703 122.64 170.536 121.471C169.105 120.034 167.224 119.133 165.208 118.917C164.169 118.772 163.127 118.631 162.323 118.077C161.519 117.524 161.03 116.679 160.57 115.904C160.156 115.132 159.645 114.417 159.051 113.774C157.747 112.421 156.036 111.532 154.179 111.245C153.883 111.199 153.585 111.173 153.286 111.169C153.182 111.16 153.078 111.16 152.975 111.169C152.975 111.197 153.403 111.193 154.162 111.326C155.232 111.523 156.256 111.917 157.18 112.49C157.816 112.882 158.398 113.356 158.909 113.9C159.487 114.537 159.982 115.244 160.384 116.005C160.84 116.784 161.337 117.669 162.194 118.259C163.05 118.849 164.141 118.994 165.175 119.14C167.143 119.346 168.981 120.22 170.383 121.616C171.527 122.752 172.316 124.197 172.653 125.773C172.884 126.835 172.917 127.931 172.75 129.005C172.609 129.777 172.464 130.181 172.508 130.189Z" fill="#455A64"/>
<path d="M122.566 97.6711L105.569 122.622C104.585 124.066 104.018 125.755 103.933 127.501C103.847 129.247 104.246 130.982 105.084 132.516V132.516C105.947 134.095 107.24 135.395 108.814 136.267C110.388 137.138 112.177 137.544 113.972 137.437L133.364 136.273L135.134 121.729L115.645 125.822L123.095 109.609L124.307 109.096C124.709 108.926 125.067 108.665 125.351 108.333C125.636 108.002 125.84 107.609 125.947 107.185L126.492 105.04L122.566 97.6711Z" fill="#FFBE9D"/>
<path d="M115.641 125.81C115.328 126.285 114.959 126.722 114.542 127.111C114.175 127.545 113.756 127.933 113.294 128.266C113.605 127.789 113.974 127.352 114.393 126.965C114.758 126.529 115.178 126.14 115.641 125.81V125.81Z" fill="#EB996E"/>
<path d="M135.91 121.2C135.91 121.2 145.674 118.158 149.436 118.978C153.197 119.798 163.285 123.309 163.285 123.309C163.596 123.559 159.532 150.68 159.532 150.68L160.792 171.486C152.308 166.969 142.943 163.737 133.029 161.297L135.267 148.171C135.267 148.171 132.326 145.856 132.326 143.093C132.326 138.62 133.356 136.273 133.356 136.273L135.91 121.2Z" fill="#957255"/>
<path d="M135.91 121.2C135.91 121.2 136.273 120.711 135.728 120.634C135.324 120.578 134.629 121.16 134.35 121.442L134.108 121.669L125.272 123.79C125.272 123.79 125.676 137.453 122.824 138.103L134.201 137.78L135.91 121.2Z" fill="#957255"/>
<path d="M133.849 130.492C133.869 130.55 133.881 130.609 133.886 130.67C133.906 130.787 133.922 130.961 133.942 131.187C133.981 131.823 133.966 132.461 133.898 133.094C133.796 134.03 133.638 134.96 133.425 135.877C133.199 136.916 132.916 138.047 132.698 139.247C132.481 140.369 132.398 141.514 132.451 142.656C132.51 143.587 132.722 144.502 133.078 145.363C133.42 146.153 133.908 146.871 134.516 147.48C134.516 147.48 134.463 147.452 134.37 147.375C134.236 147.266 134.109 147.147 133.991 147.02C133.557 146.547 133.203 146.009 132.94 145.424C132.557 144.553 132.327 143.622 132.262 142.673C132.192 141.513 132.269 140.35 132.492 139.21C132.71 137.998 133.001 136.867 133.239 135.837C133.457 134.927 133.629 134.006 133.752 133.078C133.831 132.451 133.866 131.819 133.857 131.187C133.842 130.956 133.84 130.724 133.849 130.492V130.492Z" fill="#263238"/>
<path d="M153.116 149.423C153.116 149.423 153.092 149.464 153.031 149.533C152.95 149.638 152.856 149.735 152.752 149.819C152.378 150.135 151.944 150.373 151.476 150.518C149.917 150.973 148.258 150.956 146.709 150.47C145.146 150.007 143.793 149.014 142.883 147.662C142.615 147.252 142.415 146.802 142.289 146.329C142.253 146.196 142.226 146.061 142.208 145.925C142.208 145.832 142.208 145.787 142.208 145.783C142.277 145.947 142.333 146.116 142.378 146.288C142.528 146.747 142.743 147.183 143.016 147.581C143.938 148.87 145.263 149.815 146.781 150.268C148.293 150.738 149.907 150.776 151.439 150.377C151.898 150.246 152.331 150.036 152.716 149.755C152.843 149.637 152.976 149.526 153.116 149.423V149.423Z" fill="#263238"/>
<g opacity="0.2">
<path d="M155.637 136.104C155.479 138.689 154.999 142.386 154.829 144.971C154.74 146.41 154.615 147.957 153.698 149.072C152.781 150.187 151.229 150.631 149.771 150.688C146.236 150.858 142.6 149.302 139.235 150.401C143.305 152.254 147.512 153.789 151.819 154.995C152.712 155.241 153.706 155.471 154.538 155.055C155.625 154.518 155.948 153.148 156.154 151.952C156.388 150.571 155.936 149.032 156.154 147.654C156.3 146.797 156.619 144.212 156.619 144.212L155.609 144.026C155.609 144.026 155.516 141.251 155.609 139.178" fill="black"/>
</g>
<path d="M165.167 124.513C166.67 126.044 168.169 134.568 168.803 144.689C164.82 145.383 160.368 145.024 155.641 144.038V130.233C155.641 130.233 159.782 119.035 165.167 124.513Z" fill="#957255"/>
<path d="M168.799 144.689C168.722 144.724 168.64 144.751 168.557 144.769C168.391 144.806 168.153 144.891 167.838 144.943C166.946 145.092 166.043 145.166 165.139 145.165C162.156 145.126 159.181 144.823 156.251 144.26L155.605 144.139H155.52V144.054C155.52 140.729 155.548 137.752 155.56 135.57C155.56 134.516 155.584 133.651 155.597 133.025C155.597 132.742 155.597 132.512 155.597 132.334C155.594 132.254 155.602 132.174 155.621 132.096C155.634 132.175 155.64 132.254 155.641 132.334C155.641 132.512 155.641 132.738 155.641 133.025C155.641 133.651 155.661 134.516 155.673 135.57C155.673 137.752 155.673 140.729 155.698 144.054L155.613 143.949L156.255 144.07C159.186 144.63 162.157 144.953 165.139 145.036C166.037 145.051 166.935 145 167.826 144.882C168.468 144.757 168.795 144.668 168.799 144.689Z" fill="#263238"/>
<path d="M134.411 127.482C134.317 127.171 134.272 126.846 134.277 126.521C134.249 125.734 134.328 124.947 134.512 124.182C134.69 123.423 134.969 122.693 135.34 122.008C135.48 121.711 135.667 121.438 135.893 121.2C134.809 123.114 134.289 125.297 134.395 127.494L134.411 127.482Z" fill="#263238"/>
<path d="M133.781 126.012C133.671 125.817 133.595 125.605 133.554 125.385C133.397 124.868 133.316 124.33 133.312 123.79C133.321 123.241 133.459 122.703 133.716 122.218C133.81 122.01 133.948 121.824 134.12 121.673C134.197 121.709 133.55 122.561 133.534 123.794C133.543 124.318 133.603 124.84 133.712 125.353C133.767 125.568 133.79 125.79 133.781 126.012V126.012Z" fill="#263238"/>
<path d="M161.899 123.196C159.914 123.972 158.208 125.328 157.002 127.086C157.113 126.795 157.269 126.522 157.463 126.278C157.906 125.657 158.433 125.101 159.031 124.626C159.626 124.15 160.288 123.762 160.994 123.475C161.278 123.331 161.584 123.237 161.899 123.196V123.196Z" fill="#263238"/>
<g opacity="0.2">
<path d="M132.512 137.877C132.333 137.992 132.116 138.031 131.908 137.986C131.7 137.942 131.518 137.817 131.401 137.639C131.294 137.457 131.229 137.254 131.212 137.044C131.194 136.834 131.224 136.623 131.3 136.427C131.46 136.032 131.662 135.656 131.902 135.304C132.594 134.129 133.024 132.819 133.163 131.463C133.303 130.107 133.148 128.737 132.71 127.446C133.728 128.904 134.023 130.775 133.873 132.548C133.656 134.318 133.234 136.056 132.617 137.728" fill="black"/>
</g>
<path d="M108.272 170.625L104.523 188.062L82.82 183.509C83.3816 181.461 95.4894 179.655 95.4894 179.655L97.4327 168.383L108.272 170.625Z" fill="#FF725E"/>
<g opacity="0.2">
<path d="M108.272 170.625L104.523 188.062L82.82 183.509C83.3816 181.461 95.4894 179.655 95.4894 179.655L97.4327 168.383L108.272 170.625Z" fill="black"/>
</g>
<g opacity="0.6">
<path d="M102.402 180.119C102.598 180.226 102.747 180.401 102.822 180.612C102.897 180.822 102.891 181.052 102.806 181.259C102.706 181.458 102.533 181.611 102.323 181.686C102.113 181.761 101.883 181.753 101.679 181.663C101.473 181.546 101.318 181.358 101.244 181.134C101.169 180.91 101.18 180.667 101.275 180.451C101.4 180.255 101.596 180.114 101.821 180.059C102.047 180.005 102.286 180.039 102.487 180.156" fill="white"/>
</g>
<g opacity="0.6">
<path d="M104.535 188.062L104.846 186.292L83.9068 182.608C83.9068 182.608 82.8523 182.826 82.82 183.529L104.535 188.062Z" fill="white"/>
</g>
<path d="M95.1622 179.469C95.142 179.574 95.6632 179.736 96.1116 180.184C96.56 180.632 96.7459 181.137 96.855 181.117C96.964 181.097 96.9317 180.451 96.3742 179.905C95.8167 179.36 95.1582 179.376 95.1622 179.469Z" fill="#263238"/>
<path d="M92.6857 179.934C92.6372 180.03 93.0614 180.309 93.328 180.83C93.5947 181.352 93.5987 181.853 93.7038 181.869C93.8088 181.885 94.0027 181.299 93.6593 180.657C93.3159 180.014 92.7099 179.833 92.6857 179.934Z" fill="#263238"/>
<path d="M90.8192 182.39C90.9121 182.43 91.1707 181.933 91.0212 181.295C90.8717 180.657 90.4233 180.321 90.3586 180.398C90.294 180.475 90.5364 180.855 90.6536 181.38C90.7707 181.905 90.7182 182.358 90.8192 182.39Z" fill="#263238"/>
<path d="M95.8894 176.952C95.9136 177.061 96.4308 177.017 97.0206 177.182C97.6104 177.348 98.0387 177.635 98.1114 177.554C98.1841 177.473 97.8165 177.005 97.1176 176.819C96.4186 176.633 95.853 176.855 95.8894 176.952Z" fill="#263238"/>
<path d="M96.96 174.48C97.2966 174.651 97.6738 174.728 98.0508 174.702C98.4577 174.715 98.8648 174.678 99.2628 174.593C99.4989 174.542 99.7311 174.474 99.9577 174.391C100.094 174.351 100.222 174.288 100.337 174.205C100.423 174.144 100.486 174.057 100.516 173.957C100.546 173.856 100.541 173.749 100.503 173.651C100.467 173.567 100.412 173.492 100.342 173.433C100.272 173.374 100.188 173.333 100.099 173.312C99.9668 173.281 99.8304 173.272 99.6951 173.284C99.4519 173.292 99.2098 173.321 98.9719 173.373C98.5695 173.461 98.1836 173.612 97.8286 173.821C97.2266 174.181 96.9721 174.54 97.0206 174.568C97.0691 174.597 97.3761 174.334 97.97 174.055C98.2922 173.904 98.6312 173.791 98.98 173.72C99.2004 173.683 99.4232 173.663 99.6466 173.659C99.889 173.659 100.087 173.688 100.123 173.801C100.123 173.845 100.123 173.861 100.075 173.918C99.9873 173.976 99.8921 174.023 99.792 174.055C99.5825 174.137 99.3679 174.206 99.1497 174.261C98.7779 174.358 98.3978 174.419 98.0144 174.443C97.6625 174.433 97.3103 174.445 96.96 174.48V174.48Z" fill="#263238"/>
<path d="M97.0529 174.661C97.0852 174.686 97.3761 174.35 97.5579 173.672C97.7216 173.034 97.709 172.363 97.5216 171.732C97.4935 171.576 97.4255 171.431 97.3242 171.309C97.223 171.187 97.0919 171.094 96.9438 171.037C96.847 171.019 96.7468 171.028 96.6552 171.065C96.5636 171.101 96.4843 171.163 96.4267 171.243C96.3429 171.358 96.2763 171.485 96.2288 171.619C96.1401 171.854 96.0883 172.1 96.0752 172.35C96.0526 172.767 96.1316 173.183 96.3055 173.562C96.6126 174.213 97.0287 174.431 97.0448 174.399C96.8599 174.098 96.6953 173.784 96.552 173.461C96.4288 173.11 96.3846 172.737 96.4227 172.367C96.4436 172.153 96.4939 171.944 96.5722 171.744C96.657 171.518 96.7822 171.34 96.863 171.393C96.9438 171.445 97.1176 171.627 97.1701 171.829C97.2368 172.04 97.2855 172.256 97.3155 172.476C97.3669 172.85 97.3669 173.229 97.3155 173.603C97.1943 174.261 96.9964 174.633 97.0529 174.661Z" fill="#263238"/>
<path d="M111.157 174.144L107.407 191.581L85.6884 187.028C86.25 184.979 98.3578 183.17 98.3578 183.17L100.301 171.898L111.157 174.144Z" fill="#FF725E"/>
<g opacity="0.6">
<path d="M105.27 183.638C105.466 183.745 105.616 183.92 105.69 184.131C105.765 184.341 105.759 184.571 105.674 184.777C105.573 184.976 105.4 185.128 105.191 185.203C104.981 185.278 104.751 185.271 104.547 185.181C104.343 185.064 104.189 184.876 104.115 184.652C104.04 184.429 104.05 184.186 104.143 183.969C104.269 183.775 104.465 183.636 104.691 183.581C104.916 183.527 105.154 183.56 105.355 183.675" fill="white"/>
</g>
<g opacity="0.6">
<path d="M107.407 191.581L107.714 189.807L86.7792 186.107C86.7792 186.107 85.7207 186.325 85.6884 187.028L107.407 191.581Z" fill="white"/>
</g>
<path d="M98.0306 182.984C98.0104 183.093 98.5316 183.25 98.984 183.703C99.4365 184.155 99.6183 184.656 99.7234 184.636C99.8284 184.616 99.8001 183.965 99.2466 183.424C98.6932 182.883 98.0266 182.883 98.0306 182.984Z" fill="#263238"/>
<path d="M95.5541 183.448C95.5096 183.549 95.9298 183.824 96.1964 184.349C96.4631 184.874 96.4671 185.367 96.5722 185.388C96.6772 185.408 96.8752 184.818 96.5318 184.176C96.1884 183.533 95.5783 183.351 95.5541 183.448Z" fill="#263238"/>
<path d="M93.6916 185.905C93.7805 185.949 94.0391 185.448 93.8896 184.81C93.7401 184.171 93.2917 183.836 93.227 183.917C93.1624 183.998 93.4048 184.369 93.522 184.895C93.6391 185.42 93.5866 185.872 93.6916 185.905Z" fill="#263238"/>
<path d="M98.7578 180.467C98.782 180.572 99.2992 180.527 99.889 180.693C100.479 180.859 100.907 181.146 100.984 181.069C101.061 180.992 100.689 180.515 99.99 180.329C99.2911 180.144 98.7255 180.374 98.7578 180.467Z" fill="#263238"/>
<path d="M99.8163 177.998C100.151 178.171 100.527 178.248 100.903 178.221C101.31 178.233 101.717 178.195 102.115 178.107C102.351 178.057 102.583 177.991 102.81 177.909C102.953 177.868 103.089 177.805 103.214 177.724C103.298 177.661 103.36 177.573 103.39 177.472C103.419 177.372 103.416 177.264 103.38 177.166C103.343 177.082 103.287 177.008 103.217 176.949C103.147 176.891 103.064 176.849 102.976 176.827C102.843 176.799 102.707 176.79 102.572 176.798C102.327 176.806 102.084 176.836 101.844 176.887C101.444 176.978 101.06 177.129 100.705 177.336C100.103 177.699 99.8486 178.059 99.8971 178.087C99.9456 178.116 100.253 177.849 100.842 177.574C101.188 177.413 101.554 177.298 101.929 177.231C102.148 177.192 102.37 177.171 102.592 177.166C102.838 177.166 103.032 177.194 103.068 177.312C103.068 177.352 103.068 177.368 103.02 177.429C102.934 177.486 102.84 177.531 102.741 177.562C102.53 177.644 102.314 177.714 102.095 177.772C101.723 177.869 101.343 177.93 100.96 177.954C100.578 177.942 100.196 177.957 99.8163 177.998Z" fill="#263238"/>
<path d="M99.9213 178.164C99.9577 178.188 100.245 177.849 100.43 177.174C100.53 176.778 100.564 176.369 100.531 175.962C100.51 175.718 100.463 175.477 100.39 175.243C100.362 175.087 100.294 174.941 100.193 174.819C100.092 174.697 99.9605 174.604 99.8122 174.548C99.715 174.53 99.6146 174.54 99.5229 174.577C99.4312 174.615 99.3522 174.677 99.2951 174.758C99.2132 174.874 99.148 175 99.1012 175.134C99.012 175.368 98.9602 175.615 98.9477 175.865C98.9208 176.282 98.9985 176.698 99.1739 177.077C99.481 177.732 99.8971 177.95 99.9132 177.914C99.7326 177.611 99.5681 177.3 99.4204 176.98C99.3013 176.628 99.2573 176.255 99.2911 175.885C99.3115 175.67 99.3632 175.459 99.4446 175.259C99.5254 175.037 99.6506 174.855 99.7314 174.912C99.8122 174.968 99.99 175.142 100.038 175.344C100.107 175.555 100.156 175.771 100.184 175.99C100.239 176.366 100.239 176.747 100.184 177.122C100.063 177.76 99.8688 178.164 99.9213 178.164Z" fill="#263238"/>
<path d="M148.555 95.3925C150.522 96.0712 151.407 98.4023 151.443 100.479C151.48 102.555 150.93 104.632 151.144 106.7C151.262 107.848 151.613 108.987 151.496 110.13C151.379 111.274 150.571 112.486 149.419 112.522C148.454 112.55 147.642 111.742 147.278 110.845C146.915 109.949 146.874 108.963 146.725 108.017C146.465 106.582 145.93 105.21 145.149 103.977C144.373 102.741 143.388 101.65 142.584 100.43C141.574 98.7689 140.737 97.0092 140.083 95.1784C139.699 94.2209 139.311 93.1826 139.562 92.1807C139.734 91.62 140.064 91.1209 140.512 90.7432C140.961 90.3656 141.509 90.1254 142.091 90.0516C143.262 89.9187 144.443 90.2049 145.424 90.8596C146.275 91.401 147.008 92.11 147.577 92.9434C148.145 93.7769 148.539 94.7173 148.733 95.7076" fill="#263238"/>
<path d="M148.894 112.692C149.311 112.01 149.819 111.388 150.405 110.845C150.767 110.29 151.227 109.805 151.763 109.415C152.361 108.975 153.342 108.959 153.754 109.581C154.098 110.11 153.892 110.833 153.528 111.355C153.114 111.833 152.729 112.335 152.373 112.857C152.142 113.392 151.973 113.952 151.872 114.526C151.767 115.103 151.463 115.626 151.011 116.001C150.203 116.558 148.971 116.11 148.506 115.241C148.042 114.372 148.369 113.524 148.894 112.692Z" fill="#957255"/>
<path d="M151.318 109.949C151.773 110.007 152.215 110.143 152.623 110.353C152.892 110.524 153.115 110.758 153.274 111.035C153.395 111.249 153.435 111.403 153.472 111.399C153.508 111.395 153.512 111.221 153.419 110.967C153.286 110.632 153.05 110.349 152.744 110.159C152.443 109.969 152.095 109.867 151.738 109.864C151.472 109.86 151.314 109.92 151.318 109.949Z" fill="#263238"/>
<path d="M150.522 111.1C150.543 111.132 150.68 111.068 150.902 111.1C151.193 111.172 151.468 111.299 151.71 111.476C152.32 111.88 152.704 112.34 152.756 112.304C152.573 111.869 152.247 111.51 151.831 111.286C151.559 111.085 151.236 110.966 150.898 110.942C150.639 110.926 150.506 111.06 150.522 111.1Z" fill="#263238"/>
<path d="M149.444 112.09C149.419 112.09 149.468 112.288 149.642 112.534C149.872 112.86 150.186 113.118 150.551 113.282C150.915 113.447 151.316 113.512 151.714 113.471C152.013 113.435 152.183 113.35 152.179 113.326C151.654 113.379 151.125 113.293 150.645 113.076C150.164 112.859 149.75 112.519 149.444 112.09V112.09Z" fill="#263238"/>
<path d="M148.619 113.467C148.595 113.467 148.619 113.702 148.821 114.017C149.08 114.428 149.467 114.743 149.923 114.914C150.378 115.084 150.877 115.099 151.342 114.958C151.694 114.849 151.872 114.7 151.86 114.675C151.673 114.705 151.488 114.747 151.306 114.801C150.871 114.887 150.421 114.852 150.005 114.7C149.592 114.54 149.229 114.272 148.955 113.924C148.741 113.657 148.672 113.455 148.619 113.467Z" fill="#263238"/>
<path d="M138.721 92.0312C136.754 90.0112 134.488 89.8658 132.367 90.2779C130.246 90.6899 128.197 92.1565 127.717 94.2613C127.478 95.2915 127.628 96.3702 127.531 97.4206C127.337 99.5133 126.779 101.376 126.565 103.481C126.181 107.157 128.108 110.474 130.484 113.302C132.019 115.124 133.979 117.124 136.338 116.821C137.954 116.615 139.194 115.37 140.313 114.195" fill="#263238"/>
<path d="M144.539 93.5502L145.008 95.3884L152.348 122.86C153.185 126.052 150.793 129.535 147.371 130.403C143.913 131.28 141.861 129.03 140.964 125.818C140.018 122.452 138.968 118.921 138.968 118.921C138.968 118.921 134.427 119.402 131.959 113.985C130.747 111.29 129.599 106.632 128.791 102.79C128.619 101.97 128.615 101.124 128.778 100.303C128.941 99.4814 129.269 98.7016 129.741 98.0102C130.214 97.3187 130.821 96.7301 131.527 96.2795C132.233 95.8289 133.023 95.5258 133.849 95.3884L144.539 93.5502Z" fill="#FFBE9D"/>
<path d="M133.861 105.444C133.752 105.359 133.251 105.848 132.451 105.985C131.651 106.123 131.001 105.8 130.928 105.913C130.892 105.961 131.013 106.123 131.296 106.268C131.681 106.455 132.114 106.519 132.536 106.45C132.953 106.385 133.338 106.191 133.639 105.896C133.857 105.658 133.914 105.468 133.861 105.444Z" fill="#263238"/>
<path d="M141.117 103.424C141 103.355 140.556 103.909 139.772 104.115C138.988 104.321 138.309 104.078 138.249 104.2C138.221 104.252 138.358 104.398 138.653 104.515C139.054 104.661 139.49 104.678 139.901 104.563C140.31 104.459 140.674 104.225 140.939 103.897C141.137 103.65 141.174 103.456 141.117 103.424Z" fill="#263238"/>
<path d="M136.956 109.537C136.508 109.524 136.061 109.566 135.623 109.662C135.421 109.694 135.219 109.706 135.146 109.581C135.074 109.378 135.064 109.159 135.118 108.951C135.169 108.412 135.226 107.85 135.287 107.266C135.51 104.878 135.611 102.931 135.514 102.923C135.417 102.915 135.162 104.85 134.94 107.238C134.888 107.828 134.839 108.389 134.795 108.926C134.738 109.201 134.778 109.486 134.908 109.734C134.956 109.795 135.018 109.845 135.087 109.88C135.157 109.915 135.234 109.934 135.312 109.936C135.43 109.933 135.548 109.917 135.663 109.888C136.108 109.829 136.543 109.711 136.956 109.537V109.537Z" fill="#263238"/>
<path d="M138.976 118.938C141.655 118.243 144.088 116.816 146.002 114.817C146.002 114.817 145.238 119.22 139.42 120.255L138.976 118.938Z" fill="#EB996E"/>
<path d="M141.335 101.59C141.226 101.38 140.438 101.59 139.481 101.622C138.524 101.654 137.724 101.493 137.627 101.707C137.582 101.808 137.744 101.994 138.083 102.164C138.53 102.364 139.017 102.46 139.507 102.445C139.997 102.43 140.477 102.303 140.911 102.075C141.234 101.885 141.4 101.687 141.335 101.59Z" fill="#263238"/>
<path d="M133.522 101.784C133.308 101.65 132.714 102.01 131.906 102.224C131.098 102.438 130.415 102.491 130.31 102.717C130.266 102.826 130.419 102.976 130.755 103.068C131.215 103.172 131.694 103.154 132.144 103.016C132.604 102.896 133.022 102.655 133.356 102.317C133.579 102.063 133.619 101.852 133.522 101.784Z" fill="#263238"/>
<path d="M149.379 111.767C147.274 111.54 146.232 110.995 145.101 109.205C143.969 107.416 143.424 105.327 142.968 103.258C142.709 102.083 142.45 100.834 141.659 99.9294C140.729 98.8629 139.275 98.4669 137.962 97.9377C136.649 97.4084 135.275 96.5156 135.041 95.1097C134.774 93.53 136.108 92.1201 137.514 91.3565C139.259 90.4031 141.444 89.9991 143.238 90.8677C145.206 91.8171 146.212 94.0068 146.947 96.0672C148.662 100.815 149.835 105.741 150.446 110.753" fill="#263238"/>
<path d="M142.555 98.3538C142.252 97.1418 141.99 96.156 141.966 96.1641C141.941 96.1722 142.168 97.1579 142.467 98.378C142.766 99.5981 143.028 100.576 143.052 100.568C143.077 100.56 142.854 99.5698 142.555 98.3538Z" fill="#263238"/>
<path d="M151.447 109.318C152.103 108.849 152.61 108.203 152.91 107.455C153.21 106.707 153.29 105.888 153.14 105.097C152.866 104.086 152.389 103.141 151.738 102.321C150.995 101.273 150.209 100.261 149.379 99.283" fill="#263238"/>
<path d="M150.26 110.777C150.302 110.699 150.333 110.616 150.353 110.53C150.436 110.292 150.507 110.049 150.563 109.803C151.112 107.538 150.941 105.159 150.074 102.996C149.422 101.418 148.369 100.037 147.02 98.9921C146.325 98.4516 145.56 98.0085 144.745 97.6751C143.981 97.3704 143.179 97.1719 142.362 97.0852C140.806 96.9519 139.408 97.0852 138.261 96.8832C137.351 96.7617 136.493 96.3881 135.784 95.8046C135.539 95.573 135.32 95.3157 135.13 95.037C135.158 95.1215 135.197 95.2018 135.247 95.2753C135.388 95.493 135.554 95.6925 135.744 95.8692C136.45 96.4939 137.321 96.9009 138.253 97.0408C139.424 97.267 140.838 97.1499 142.362 97.2913C143.158 97.3821 143.938 97.5805 144.68 97.8811C145.477 98.2067 146.224 98.6404 146.902 99.1699C148.221 100.192 149.254 101.538 149.9 103.077C150.422 104.336 150.707 105.681 150.74 107.044C150.763 107.964 150.682 108.885 150.498 109.787C150.349 110.425 150.235 110.769 150.26 110.777Z" fill="#455A64"/>
<path d="M150.167 98.4104C150.167 98.4104 150.167 98.3538 150.147 98.2447C150.115 98.0855 150.068 97.9298 150.005 97.7801C149.764 97.2317 149.382 96.7566 148.898 96.4025C148.186 95.8775 147.352 95.5412 146.474 95.4248C145.402 95.3205 144.32 95.3928 143.271 95.6389C142.155 95.8611 141.109 96.1278 140.148 96.253C139.295 96.3737 138.428 96.3628 137.578 96.2207C137.008 96.1231 136.461 95.9233 135.962 95.6308C135.607 95.4167 135.437 95.2592 135.425 95.2794C135.413 95.2996 135.457 95.3278 135.538 95.4006C135.653 95.5131 135.779 95.6145 135.914 95.7036C136.409 96.0344 136.965 96.2638 137.55 96.3782C138.414 96.5487 139.299 96.576 140.172 96.459C141.158 96.3459 142.192 96.0793 143.315 95.8611C144.34 95.621 145.397 95.5433 146.446 95.6308C147.297 95.7316 148.111 96.041 148.813 96.5318C149.288 96.8606 149.674 97.302 149.937 97.8165C150.102 98.172 150.143 98.4184 150.167 98.4104Z" fill="#455A64"/>
<path d="M129.425 91.4413C129.39 91.5411 129.375 91.6468 129.381 91.7524C129.382 92.0384 129.43 92.3222 129.522 92.5927C129.856 93.4884 130.517 94.2236 131.373 94.6491C132.223 95.0487 133.152 95.2504 134.092 95.2389C134.475 95.2671 134.86 95.2385 135.235 95.1541C134.857 95.1069 134.477 95.0826 134.096 95.0814C133.189 95.0456 132.299 94.8286 131.478 94.4431C130.669 94.0413 130.029 93.3656 129.672 92.5362C129.553 92.1804 129.471 91.8136 129.425 91.4413V91.4413Z" fill="#455A64"/>
<path d="M127.624 95.5621C127.599 95.5621 127.624 95.7722 127.785 96.055C128.008 96.4162 128.326 96.7089 128.705 96.9007C129.083 97.0925 129.507 97.1759 129.93 97.1418C130.254 97.1054 130.431 97.0044 130.423 96.9802C130.257 96.9654 130.089 96.9654 129.922 96.9802C129.534 96.9703 129.153 96.8737 128.807 96.6974C128.461 96.5214 128.158 96.2718 127.919 95.9661C127.737 95.748 127.664 95.55 127.624 95.5621Z" fill="#455A64"/>
<path d="M137.619 111.698C137.772 111.742 137.574 112.021 137.687 112.134C137.804 112.243 137.956 112.306 138.115 112.312C138.705 112.36 139.731 111.726 139.691 110.959C139.538 110.752 139.326 110.598 139.083 110.515C138.839 110.432 138.577 110.424 138.33 110.494C137.36 110.696 136.685 111.423 137.619 111.698Z" fill="#EB996E"/>
<path d="M137.421 112.619C137.542 112.668 137.825 111.831 138.738 111.48C139.651 111.128 140.507 111.516 140.556 111.399C140.584 111.355 140.41 111.173 140.039 111.035C139.552 110.866 139.021 110.873 138.54 111.056C138.076 111.232 137.698 111.581 137.485 112.029C137.36 112.365 137.36 112.603 137.421 112.619Z" fill="#263238"/>
<path d="M140.931 104.402C140.972 104.442 140.725 104.729 140.293 104.87C139.861 105.012 139.485 104.935 139.485 104.87C139.485 104.806 139.824 104.794 140.208 104.66C140.592 104.527 140.891 104.357 140.931 104.402Z" fill="#EB996E"/>
<path d="M133.025 106.733C133.045 106.785 132.71 106.959 132.257 106.935C131.805 106.911 131.49 106.704 131.518 106.656C131.546 106.608 131.862 106.709 132.27 106.725C132.678 106.741 133.005 106.676 133.025 106.733Z" fill="#EB996E"/>
<path d="M156.275 144.07L155.128 154.17C155.122 154.232 155.103 154.291 155.071 154.343C155.039 154.396 154.995 154.44 154.943 154.473C154.891 154.507 154.833 154.527 154.772 154.534C154.71 154.541 154.649 154.534 154.591 154.514L131.353 148.268L127.022 155.439L151.447 164.933C155.593 166.303 159.394 166.573 162.238 164.081C164.287 162.291 165.232 159.802 165.664 156.998C165.769 156.304 165.947 155.617 166.02 154.918L167.325 144.963C164.169 145.44 160.23 145.008 156.275 144.07Z" fill="#FFBE9D"/>
<path d="M157.964 159.665C157.928 159.665 157.936 159.301 157.843 158.724C157.597 157.215 156.823 155.843 155.657 154.853C155.213 154.477 154.898 154.296 154.914 154.263C155.22 154.367 155.503 154.527 155.75 154.736C156.372 155.212 156.893 155.809 157.281 156.489C157.665 157.172 157.906 157.925 157.988 158.703C158.039 159.023 158.031 159.349 157.964 159.665V159.665Z" fill="#EB996E"/>
<path d="M95.3884 171.248C95.3884 170.642 98.782 151.625 99.7436 143.275C100.115 140.043 102.911 137.009 105.913 135.728C108.04 134.823 110.433 134.764 112.603 135.562C114.773 136.36 116.557 137.955 117.592 140.022L141.331 190.579H136.596C133.021 190.369 126.836 190.785 120.691 178.354L115.407 167.042L108.979 164.666L106.535 174.447L95.3884 171.248Z" fill="#263238"/>
<path d="M161.539 177.283L160.792 171.486L146.163 165.155L124.468 138.212C122.821 135.774 120.275 134.087 117.386 133.522L116.635 133.377C114.019 132.864 111.306 133.31 108.991 134.633V134.633C106.521 136.043 104.686 138.346 103.864 141.069L97.4529 174.556L111.908 176.952L115.637 157.964L129.575 182.022C133.142 188.89 139.966 190.769 142.067 190.631L150.086 190.769C151.761 190.743 153.411 190.36 154.926 189.645C156.441 188.93 157.786 187.9 158.87 186.623C159.955 185.346 160.754 183.852 161.214 182.241C161.674 180.631 161.785 178.94 161.539 177.283V177.283Z" fill="#263238"/>
<path d="M147.173 190.938H147.048H146.676C146.353 190.938 145.868 190.938 145.254 190.938C143.504 190.921 141.759 190.741 140.043 190.401C138.857 190.157 137.703 189.776 136.605 189.266C135.338 188.68 134.176 187.89 133.166 186.927C132.094 185.829 131.128 184.632 130.282 183.351C129.373 182.042 128.5 180.645 127.644 179.19C125.927 176.285 124.452 173.425 123.054 170.864C121.657 168.302 120.319 166.016 119.212 164.125C118.105 162.234 117.192 160.683 116.574 159.604L115.859 158.392L115.677 158.069C115.654 158.034 115.635 157.996 115.621 157.956C115.621 157.956 115.649 157.988 115.693 158.057L115.895 158.368L116.643 159.58C117.289 160.634 118.214 162.166 119.342 164.064C120.469 165.963 121.798 168.234 123.224 170.787C124.65 173.34 126.113 176.201 127.826 179.101C128.682 180.552 129.551 181.929 130.452 183.25C131.286 184.523 132.241 185.712 133.304 186.802C134.294 187.755 135.433 188.54 136.677 189.125C137.762 189.635 138.902 190.02 140.075 190.272C141.781 190.622 143.514 190.822 145.254 190.87L146.676 190.914H147.048L147.173 190.938Z" fill="#455A64"/>
<path d="M114.465 133.171L114.239 133.207C114.09 133.207 113.867 133.243 113.577 133.304C113.219 133.359 112.864 133.433 112.514 133.526C112.308 133.583 112.082 133.635 111.843 133.712L111.1 133.974C109.836 134.471 108.666 135.18 107.642 136.071C107.003 136.625 106.421 137.24 105.905 137.909C105.334 138.663 104.845 139.476 104.446 140.333C103.586 142.143 103.351 144.353 102.883 146.656C102.414 148.959 101.97 151.443 101.477 154.041C100.483 159.245 99.3921 164.949 98.2447 170.965C98.0104 172.177 97.7801 173.389 97.5539 174.568L97.469 174.443L111.908 176.867L111.799 176.944C114.603 161.964 116.421 152.26 116.578 151.427C116.578 151.427 116.578 151.593 116.518 151.912C116.457 152.231 116.392 152.72 116.291 153.306C116.077 154.518 115.762 156.312 115.366 158.558C114.558 163.067 113.37 169.446 111.989 176.984L111.969 177.077H111.876L97.4327 174.686L97.3276 174.665L97.364 174.528C97.5902 173.344 97.8205 172.14 98.0548 170.924C99.2062 164.925 100.305 159.208 101.287 154.005C101.788 151.407 102.265 148.935 102.709 146.624C102.935 145.468 103.149 144.349 103.355 143.279C103.558 142.243 103.88 141.235 104.313 140.273C104.717 139.404 105.214 138.582 105.795 137.821C106.323 137.148 106.916 136.53 107.565 135.974C108.605 135.083 109.792 134.378 111.072 133.89L111.823 133.631C112.062 133.558 112.288 133.514 112.498 133.457C112.852 133.369 113.211 133.3 113.572 133.251C113.868 133.207 114.166 133.18 114.465 133.171Z" fill="#455A64"/>
<path d="M156.421 181.461C156.386 181.224 156.366 180.985 156.36 180.746C156.309 180.1 156.208 179.46 156.057 178.831C155.523 176.756 154.578 174.809 153.278 173.106C151.969 171.409 150.505 169.838 148.906 168.411L147.46 167.09C147.275 166.938 147.103 166.771 146.947 166.589C147.147 166.721 147.336 166.868 147.513 167.03C147.868 167.325 148.377 167.753 148.999 168.298C150.636 169.704 152.125 171.273 153.443 172.981C154.761 174.704 155.7 176.687 156.199 178.798C156.338 179.437 156.419 180.088 156.441 180.742C156.45 180.919 156.45 181.097 156.441 181.275C156.444 181.337 156.437 181.4 156.421 181.461V181.461Z" fill="#455A64"/>
<path d="M157.73 177.865C157.685 177.865 157.524 177.101 157.035 175.934C156.91 175.639 156.772 175.324 156.594 174.997C156.417 174.669 156.219 174.322 156.009 173.962C155.521 173.197 154.967 172.477 154.352 171.809C153.727 171.15 153.045 170.548 152.312 170.011C151.969 169.777 151.645 169.543 151.322 169.361C150.999 169.179 150.7 169.001 150.417 168.856C149.282 168.29 148.518 168.076 148.531 168.048C148.714 168.077 148.894 168.125 149.068 168.189C149.278 168.247 149.484 168.317 149.686 168.399C149.92 168.496 150.195 168.593 150.494 168.739C150.793 168.884 151.1 169.03 151.423 169.223C151.746 169.417 152.086 169.627 152.437 169.87C153.186 170.407 153.882 171.013 154.518 171.68C155.143 172.357 155.702 173.093 156.186 173.878C156.396 174.245 156.59 174.589 156.76 174.932C156.918 175.245 157.06 175.566 157.184 175.894C157.31 176.184 157.386 176.467 157.467 176.702C157.535 176.907 157.593 177.116 157.641 177.328C157.685 177.504 157.715 177.684 157.73 177.865Z" fill="#455A64"/>
<path d="M160.424 165.345C161.507 165.822 161.782 167.147 161.455 168.282C161.367 168.486 161.334 168.708 161.358 168.929C161.44 169.146 161.588 169.333 161.782 169.462C162.149 169.781 162.473 170.148 162.743 170.553C162.96 170.828 163.069 171.172 163.05 171.522C163.007 171.704 162.917 171.872 162.789 172.008C162.66 172.144 162.498 172.244 162.319 172.298C161.96 172.401 161.582 172.426 161.212 172.371C158.679 172.132 156.312 171.021 154.069 169.817C151.827 168.613 149.448 165.971 145.844 164.759C151.245 165.369 157.722 167.381 160.424 165.345Z" fill="#957255"/>
<path d="M150.575 116.247C150.979 117.415 151.217 118.905 150.603 119.98C150.09 120.881 149.019 121.297 148.304 122.048C147.901 122.483 147.62 123.017 147.491 123.595C147.362 124.174 147.389 124.776 147.569 125.341C148.001 126.638 149.246 127.745 149.032 129.09C148.874 130.08 147.981 130.751 147.319 131.514C146.679 132.25 146.221 133.126 145.981 134.071C145.741 135.016 145.726 136.004 145.937 136.956L150.886 137.683C150.874 136.791 151.099 135.912 151.536 135.134C151.857 135.802 152.173 136.469 152.486 137.134L153.698 135.982C152.845 135.069 152.728 133.671 152.991 132.451C153.253 131.231 153.839 130.108 154.239 128.924C154.639 127.741 154.845 126.412 154.344 125.268C153.94 124.359 153.132 123.58 153.132 122.59C153.156 121.923 153.573 121.349 153.863 120.752C154.258 119.913 154.422 118.985 154.34 118.062C154.257 117.139 153.931 116.255 153.395 115.5" fill="#263238"/>
<path d="M127.365 95.1905L122.566 97.6711L126.492 105.04L130.072 103.497C130.072 103.497 132.666 104.099 133.36 102.531L130.072 102.087L127.506 102.895L130.553 101.279C130.553 101.279 134.189 102.087 134.912 100.123L130.064 99.6183C130.064 99.6183 134.762 99.9617 134.423 98.1155H129.777L125.078 99.1093L128.068 96.7621C128.068 96.7621 132.27 96.3338 132.839 95.1945L127.365 95.1905Z" fill="#FFBE9D"/>
<path d="M133.282 102.527C133.284 102.523 133.286 102.519 133.288 102.515L133.295 102.529L133.348 102.628L133.233 102.613L130.08 102.194L127.907 102.88L127.551 103.068L127.522 103.001C127.502 103.004 127.482 103.001 127.464 102.991C127.444 102.981 127.429 102.964 127.421 102.944C127.413 102.924 127.412 102.901 127.419 102.88C127.426 102.859 127.439 102.842 127.458 102.83L130.5 101.214C130.517 101.21 130.535 101.21 130.553 101.214C131.321 101.253 132.092 101.223 132.855 101.125C133.246 101.076 133.629 100.984 133.999 100.851C134.18 100.804 134.348 100.714 134.489 100.59C134.6 100.492 134.691 100.374 134.758 100.242L130.669 99.8164C130.471 99.8176 130.274 99.8149 130.076 99.8082V99.7546L130.048 99.7516C130.024 99.7469 130.002 99.734 129.987 99.7153C129.971 99.6965 129.963 99.6729 129.963 99.6486C129.963 99.6243 129.971 99.6008 129.987 99.582C130.002 99.5632 130.024 99.5503 130.048 99.5456C130.684 99.564 131.321 99.5424 131.954 99.481C132.604 99.4414 133.24 99.2782 133.829 99.0002C133.99 98.9179 134.129 98.7972 134.233 98.6487C134.304 98.5289 134.335 98.3902 134.323 98.2528H129.805L125.27 99.2122L125.159 99.2992L125.132 99.2414L125.107 99.2466C125.08 99.2514 125.053 99.2455 125.031 99.2304C125.01 99.2152 124.994 99.1921 124.99 99.1658C124.986 99.1479 124.987 99.1293 124.994 99.1121C125 99.0949 125.011 99.08 125.026 99.0689L128.015 96.7216C128.031 96.7099 128.049 96.7028 128.068 96.7014C128.936 96.6082 129.797 96.4584 130.646 96.253C131.051 96.1428 131.449 96.0079 131.837 95.849C132.156 95.7404 132.44 95.5506 132.662 95.2996H127.401L122.594 97.764H122.614L120.121 101.376L119.455 102.325L119.281 102.568C119.262 102.596 119.24 102.623 119.216 102.648C119.231 102.617 119.249 102.588 119.269 102.559L119.43 102.309L120.069 101.343L122.517 97.7074H122.541L127.329 95.2066H127.365H132.739C132.748 95.1946 132.757 95.1825 132.767 95.1703L132.789 95.2066H132.847C132.87 95.2066 132.891 95.2156 132.907 95.2315C132.923 95.2474 132.932 95.269 132.932 95.2915C132.936 95.306 132.936 95.3214 132.932 95.3359C132.678 95.6897 132.321 95.9564 131.91 96.0995C131.516 96.2612 131.111 96.3962 130.698 96.5035C129.85 96.7122 128.99 96.8664 128.123 96.9651L125.5 99.0306L129.773 98.1195H129.793H134.439C134.463 98.12 134.486 98.1286 134.505 98.1441C134.523 98.1595 134.535 98.1808 134.54 98.2043C134.589 98.4201 134.551 98.6462 134.435 98.8346C134.315 99.0047 134.156 99.1433 133.97 99.2386C133.355 99.5299 132.69 99.7026 132.011 99.7476C131.911 99.7573 131.81 99.766 131.709 99.7737L134.924 100.111C134.95 100.114 134.974 100.127 134.99 100.148C135.007 100.168 135.015 100.194 135.013 100.22C134.954 100.442 134.821 100.637 134.637 100.774C134.468 100.904 134.28 101.007 134.08 101.081C133.695 101.219 133.297 101.314 132.892 101.364C132.131 101.459 131.363 101.49 130.597 101.455L128.466 102.584L130.044 102.087H130.084L133.282 102.527Z" fill="#EB996E"/>
<path d="M130.088 99.6062C129.482 99.9614 128.831 100.233 128.153 100.414C127.501 100.659 126.835 100.861 126.157 101.02C126.761 100.664 127.41 100.392 128.088 100.212C128.741 99.9673 129.409 99.7648 130.088 99.6062V99.6062Z" fill="#EB996E"/>
<path d="M74.4532 117.023C50.8515 112.558 27.0195 100.022 14.7581 79.3658C10.3141 71.8595 7.8174 61.8362 9.16676 53.2108C10.7828 42.9937 21.2019 32.7563 32.623 30.3081C42.723 28.1426 54.439 34.8248 58.8588 44.1814L58.7537 58.0467L68.8174 63.2421L66.8782 76.8408L81.2565 85.749L74.4532 117.023Z" fill="#FF2101"/>
<g opacity="0.7">
<path d="M74.4532 117.023C50.8515 112.558 27.0195 100.022 14.7581 79.3658C10.3141 71.8595 7.8174 61.8362 9.16676 53.2108C10.7828 42.9937 21.2019 32.7563 32.623 30.3081C42.723 28.1426 54.439 34.8248 58.8588 44.1814L58.7537 58.0467L68.8174 63.2421L66.8782 76.8408L81.2565 85.749L74.4532 117.023Z" fill="#FC0000"/>
</g>
<path d="M67.1367 40.501C67.9851 30.1909 76.6024 19.8283 86.8358 18.3052C98.3861 16.5882 111.75 22.5109 116.837 31.512C121.127 39.1112 122.315 49.3728 120.776 57.9659C116.546 81.608 98.6285 101.723 78.0972 114.183L87.1186 81.8827L73.124 72.114L76.4126 57.772L66.8014 52.8796L67.1367 40.501Z" fill="#FF2101"/>
<g opacity="0.7">
<path d="M67.1367 40.501C67.9851 30.1909 76.6024 19.8283 86.8358 18.3052C98.3861 16.5882 111.75 22.5109 116.837 31.512C121.127 39.1112 122.315 49.3728 120.776 57.9659C116.546 81.608 98.6285 101.723 78.0972 114.183L87.1186 81.8827L73.124 72.114L76.4126 57.772L66.8014 52.8796L67.1367 40.501Z" fill="#FF0000"/>
</g>
</g>
</svg>
