<svg width="18" height="18" viewBox="0 0 18 18" fill="none" xmlns="http://www.w3.org/2000/svg">
<path fill-rule="evenodd" clip-rule="evenodd" d="M11.161 8.307C11.5399 8.307 11.8396 8.613 11.8396 9C11.8396 9.378 11.5399 9.693 11.161 9.693H5.87307V13.995C5.87307 16.2 7.62689 18 9.79494 18H14.087C16.2462 18 18 16.209 18 14.004V4.005C18 1.791 16.2374 0 14.0781 0H9.77731C7.62689 0 5.87307 1.791 5.87307 3.996V8.307H11.161ZM2.72871 5.88615L0.199377 8.50515C0.0694447 8.64015 0.000148773 8.81115 0.000148773 9.00015C0.000148773 9.18015 0.0694447 9.36015 0.199377 9.48615L2.72871 12.1052C2.85864 12.2402 3.03188 12.3122 3.19646 12.3122C3.3697 12.3122 3.54294 12.2402 3.67288 12.1052C3.93274 11.8352 3.93274 11.3942 3.67288 11.1242L2.28694 9.69315H5.87305V8.30715H2.28694L3.67288 6.87615C3.93274 6.60615 3.93274 6.16515 3.67288 5.89515C3.41301 5.61615 2.98857 5.61615 2.72871 5.88615Z" fill="#957255"/>
</svg>
