<svg width="18" height="29" viewBox="0 0 18 29" fill="none" xmlns="http://www.w3.org/2000/svg">
<path d="M17.1024 14.9643C16.4205 14.2243 15.3925 13.7943 13.9676 13.6443V12.8843C13.9676 11.5143 13.3773 10.1943 12.3391 9.27427C11.8269 8.81282 11.2211 8.46293 10.5616 8.24751C9.90214 8.03209 9.20376 7.95602 8.51226 8.02427C6.07975 8.25427 4.034 10.5643 4.034 13.0643V13.6443C2.60909 13.7943 1.58113 14.2243 0.899211 14.9643C-0.088043 16.0443 -0.0575092 17.4843 0.0544474 18.4843L0.766899 24.0543C0.980634 26.0043 1.78469 28.0043 6.16117 28.0043H11.8404C16.2169 28.0043 17.021 26.0043 17.2347 24.0643L17.9471 18.4743C18.0591 17.4843 18.0795 16.0443 17.1024 14.9643ZM8.65475 9.41427C9.148 9.36559 9.64616 9.41913 10.117 9.57143C10.5879 9.72372 11.021 9.97138 11.3884 10.2984C11.7558 10.6254 12.0492 11.0246 12.2498 11.47C12.4504 11.9154 12.5536 12.3972 12.5529 12.8843V13.5843H5.44872V13.0643C5.44872 11.2843 6.94487 9.57427 8.65475 9.41427ZM5.35712 19.1543H5.34694C4.78716 19.1543 4.32915 18.7043 4.32915 18.1543C4.32915 17.6043 4.78716 17.1543 5.34694 17.1543C5.9169 17.1543 6.37491 17.6043 6.37491 18.1543C6.37491 18.7043 5.9169 19.1543 5.35712 19.1543ZM12.4816 19.1543H12.4715C11.9117 19.1543 11.4537 18.7043 11.4537 18.1543C11.4537 17.6043 11.9117 17.1543 12.4715 17.1543C13.0414 17.1543 13.4994 17.6043 13.4994 18.1543C13.4994 18.7043 13.0414 19.1543 12.4816 19.1543Z" fill="#957255"/>
<circle cx="9" cy="2" r="2" fill="#957255"/>
</svg>
