<svg width="19" height="22" viewBox="0 0 19 22" fill="none" xmlns="http://www.w3.org/2000/svg">
<path d="M5.378 6.66395V5.69354C5.378 3.44259 7.13612 1.23166 9.32163 1.02157C9.92889 0.960124 10.5419 1.0303 11.1212 1.2276C11.7006 1.42489 12.2334 1.74492 12.6854 2.1671C13.1374 2.58928 13.4985 3.10425 13.7456 3.67886C13.9927 4.25348 14.1203 4.87501 14.12 5.50346V6.88405M6.83501 21H12.663C16.5678 21 17.2672 19.3893 17.4712 17.4285L18.1997 11.426C18.4619 8.98493 17.782 6.99409 13.6344 6.99409H5.86367C1.71605 6.99409 1.03611 8.98493 1.29837 11.426L2.02688 17.4285C2.23086 19.3893 2.93022 21 6.83501 21Z" stroke="#909090" stroke-miterlimit="10" stroke-linecap="round" stroke-linejoin="round"/>
<path d="M13.1445 10.9961H13.1542M6.34509 10.9961H6.35286" stroke="#909090" stroke-width="2" stroke-linecap="round" stroke-linejoin="round"/>
</svg>
