<svg width="28" height="16" viewBox="0 0 28 16" fill="none" xmlns="http://www.w3.org/2000/svg">
<path d="M19.2473 12.2353L16.744 14.7594C16.355 15.154 15.8922 15.4668 15.3824 15.6798C14.8726 15.8927 14.326 16.0016 13.7743 16H7.90708C7.54494 15.9994 7.18784 15.9144 6.86367 15.7516L5.81776 15.224C5.60819 15.1177 5.37523 15.0668 5.1408 15.0763L4.66667 15.093V16H0V5.64705H4.66667V7.05882H5.46012L5.74245 6.87058C6.53254 6.34159 7.45225 6.04311 8.4 6.00811V0H28V12.2353H19.2473ZM3.73333 6.58823H0.933333V15.0588H3.73333V6.58823ZM6.25899 7.6537L5.73988 7.99999H4.66667V14.1514L5.10667 14.1355C5.49732 14.1215 5.88523 14.2063 6.23507 14.3821L7.28006 14.9097C7.47476 15.0078 7.68943 15.0588 7.90708 15.0588H13.7741C14.2033 15.0601 14.6284 14.9754 15.0249 14.8099C15.4214 14.6443 15.7814 14.4011 16.084 14.0942L17.9275 12.2353H14.0766L12.9439 13.3773L12.2841 12.712L15.5807 9.38764C15.9469 9.01999 15.948 8.42258 15.5835 8.05305C15.2186 7.68382 14.6262 7.68264 14.26 8.05029L11.5067 10.8268L11.18 10.5443C10.2778 9.77181 8.95918 9.75205 8.03448 10.4975L7.76405 10.7185L7.17593 9.98734L7.44934 9.76381C7.73533 9.5333 8.05635 9.35086 8.4 9.22352V6.94964C7.63616 6.98382 6.89599 7.22726 6.25899 7.6537ZM12.8973 8.09423L13.6015 7.38393C14.3324 6.65788 15.5059 6.6567 16.2381 7.38164C15.5531 6.31205 15.8234 4.88852 16.8517 4.14982C17.8801 3.41106 19.3026 3.61858 20.0812 4.62064C20.8599 5.62294 20.7193 7.06546 19.7618 7.89546C18.8045 8.7254 17.3689 8.64934 16.5033 7.72287C16.6604 7.97172 16.7563 8.25483 16.7829 8.54862C16.8095 8.8424 16.766 9.13833 16.6562 9.41176H22.9055C23.1061 8.2277 24.0258 7.30029 25.2 7.09788V5.13741C24.0258 4.935 23.1061 4.00758 22.9054 2.82353H13.4946C13.2939 4.00758 12.3742 4.935 11.2 5.13741V7.09788C11.867 7.21119 12.4702 7.56533 12.8973 8.09423ZM16.8 6.11764C16.8 6.89729 17.4268 7.5294 18.2 7.5294C18.9731 7.5294 19.6 6.89729 19.6 6.11764C19.6 5.33799 18.9731 4.70588 18.2 4.70588C17.4268 4.70588 16.8 5.33799 16.8 6.11764ZM27.0667 0.941175H9.33333V9.02646C10.0732 8.97046 10.8108 9.16051 11.4333 9.56752L12.2295 8.7647C12.0568 8.52811 11.8315 8.33567 11.5716 8.20286C11.3118 8.07005 11.0246 8.00056 10.7333 7.99999H10.2667V4.23529H10.7333C11.7642 4.23529 12.6 3.39247 12.6 2.35294V1.88235H23.8V2.35294C23.8 3.39247 24.6358 4.23529 25.6667 4.23529H26.1333V7.99999H25.6667C24.6358 7.99999 23.8 8.84281 23.8 9.88234V10.3529H15.9432L15.0099 11.2941H27.0667V0.941175Z" fill="#957255"/>
</svg>
