<svg width="18" height="28" viewBox="0 0 18 28" fill="none" xmlns="http://www.w3.org/2000/svg">
<path d="M9 17.7561C10.313 17.7561 11.5721 17.2422 12.5005 16.3274C13.4289 15.4125 13.9505 14.1718 13.9505 12.878C13.9505 11.5843 13.4289 10.3436 12.5005 9.42875C11.5721 8.51394 10.313 8 9 8C7.68705 8 6.42787 8.51394 5.49947 9.42875C4.57107 10.3436 4.04951 11.5843 4.04951 12.878C4.04951 14.1718 4.57107 15.4125 5.49947 16.3274C6.42787 17.2422 7.68705 17.7561 9 17.7561ZM9 20.1951C4.0396 20.1951 0 23.4732 0 27.5122C0 27.7854 0.217822 28 0.49505 28H17.505C17.7822 28 18 27.7854 18 27.5122C18 23.4732 13.9604 20.1951 9 20.1951Z" fill="#957255"/>
<circle cx="9.08984" cy="2" r="2" fill="#957255"/>
</svg>
