<svg width="18" height="20" viewBox="0 0 18 20" fill="none" xmlns="http://www.w3.org/2000/svg">
<path d="M12.1496 7.9712C11.3155 8.79308 10.1827 9.2561 9 9.2561C7.8173 9.2561 6.68449 8.79308 5.85041 7.9712C5.01658 7.14957 4.54951 6.03678 4.54951 4.87805C4.54951 3.71932 5.01658 2.60653 5.85041 1.7849C6.68449 0.963021 7.8173 0.5 9 0.5C10.1827 0.5 11.3155 0.963021 12.1496 1.7849C12.9834 2.60653 13.4505 3.71932 13.4505 4.87805C13.4505 6.03678 12.9834 7.14957 12.1496 7.9712ZM17.5 19.5H0.500014C0.508228 15.8343 4.21905 12.6951 9 12.6951C13.781 12.6951 17.4918 15.8343 17.5 19.5Z" stroke="#909090"/>
</svg>
