<svg width="18" height="19" viewBox="0 0 18 19" fill="none" xmlns="http://www.w3.org/2000/svg">
<path fill-rule="evenodd" clip-rule="evenodd" d="M16.9601 11.001C17.299 11.1815 17.5604 11.4665 17.7443 11.7515C18.1026 12.3405 18.0735 13.0625 17.725 13.699L17.0473 14.839C16.689 15.447 16.021 15.827 15.3336 15.827C14.9947 15.827 14.6171 15.732 14.3073 15.542C14.0556 15.3805 13.7652 15.3235 13.4553 15.3235C12.4969 15.3235 11.6933 16.112 11.6642 17.0525C11.6642 18.145 10.7735 19 9.66011 19H8.3434C7.22033 19 6.32961 18.145 6.32961 17.0525C6.31025 16.112 5.50666 15.3235 4.54818 15.3235C4.22868 15.3235 3.93823 15.3805 3.69619 15.542C3.38637 15.732 2.9991 15.827 2.66993 15.827C1.97284 15.827 1.30481 15.447 0.946583 14.839L0.278545 13.699C-0.0796779 13.0815 -0.0990413 12.3405 0.259182 11.7515C0.414089 11.4665 0.70454 11.1815 1.03372 11.001C1.30481 10.868 1.47908 10.6495 1.64367 10.393C2.12775 9.576 1.8373 8.5025 1.01435 8.018C0.055866 7.4765 -0.253949 6.27 0.297908 5.3295L0.946583 4.2085C1.50812 3.268 2.70865 2.9355 3.67682 3.4865C4.51913 3.9425 5.61316 3.6385 6.10693 2.831C6.26184 2.565 6.34897 2.28 6.32961 1.995C6.31025 1.6245 6.41674 1.273 6.6007 0.988C6.95892 0.399 7.60759 0.019 8.31436 0H9.67948C10.3959 0 11.0446 0.399 11.4028 0.988C11.5771 1.273 11.6933 1.6245 11.6642 1.995C11.6449 2.28 11.732 2.565 11.8869 2.831C12.3807 3.6385 13.4747 3.9425 14.3267 3.4865C15.2852 2.9355 16.4954 3.268 17.0473 4.2085L17.6959 5.3295C18.2575 6.27 17.9477 7.4765 16.9795 8.018C16.1565 8.5025 15.8661 9.576 16.3599 10.393C16.5148 10.6495 16.689 10.868 16.9601 11.001ZM6 9.50443C6 10.8938 7.12389 12 8.51327 12C9.90265 12 11 10.8938 11 9.50443C11 8.11504 9.90265 7 8.51327 7C7.12389 7 6 8.11504 6 9.50443Z" fill="#957255"/>
</svg>
