<svg width="18" height="14" viewBox="0 0 18 14" fill="none" xmlns="http://www.w3.org/2000/svg">
<path d="M0.602228 13.8831C1.93542 12.4182 5.29676 9.41545 10.0787 9.0376C10.6293 8.99409 11.0779 9.44595 11.0779 9.99823V10.8147C11.0779 11.7131 12.1707 12.1558 12.796 11.5107L17.3254 6.83758C17.7013 6.44973 17.7013 5.83346 17.3254 5.44561L12.796 0.772539C12.1707 0.127402 11.0779 0.570076 11.0779 1.46853V2.28496C11.0779 2.83724 10.6291 3.27998 10.0816 3.35272C5.69925 3.93498 0.606001 8.20365 0.0026035 13.5992C-0.00639223 13.6745 0.00805864 13.7507 0.0438636 13.8169C0.0796686 13.8831 0.134969 13.9358 0.201758 13.9675C0.268546 13.9991 0.343356 14.0079 0.415355 13.9928C0.487354 13.9776 0.552804 13.9392 0.602228 13.8831Z" fill="#957255"/>
</svg>
