<svg width="77" height="100" viewBox="0 0 77 100" fill="none" xmlns="http://www.w3.org/2000/svg">
<g opacity="0.9">
<path d="M46.3021 62.9111C45.8671 62.9111 45.4498 63.0848 45.1422 63.3939C44.8346 63.703 44.6618 64.1223 44.6618 64.5595V81.1683H3.28055V39.5824H15.9085C16.8146 39.5824 17.5487 38.8444 17.5487 37.9341C17.5487 37.0238 16.8146 36.2858 15.9085 36.2858H3.28055V29.304C3.28055 26.4056 5.62701 24.0476 8.51149 24.0476H10.8733C11.7794 24.0476 12.5135 23.3096 12.5135 22.3993C12.5135 21.489 11.7794 20.751 10.8733 20.751H8.51149C3.81834 20.751 0 24.5878 0 29.304V91.4465C0 96.1627 3.81834 99.9995 8.51149 99.9995H39.4311C44.1242 99.9995 47.9426 96.1627 47.9426 91.4465V64.5595C47.9425 64.1223 47.7697 63.703 47.462 63.3939C47.1544 63.0848 46.7371 62.9111 46.3021 62.9111ZM39.4309 96.7031H8.51149C5.62723 96.7031 3.28055 94.3451 3.28055 91.4467V84.4649H44.662V91.4467C44.6618 94.3451 42.3153 96.7031 39.4309 96.7031ZM31.4762 23.1496C29.091 22.7576 28.9904 22.5233 28.9904 22.0312C28.9904 21.1611 30.4437 20.9312 31.212 20.9312C32.4466 20.9312 33.2429 21.3492 33.3918 21.7622C33.4652 21.9657 33.5777 22.1527 33.723 22.3126C33.8683 22.4724 34.0434 22.6019 34.2385 22.6936C34.4336 22.7854 34.6448 22.8376 34.86 22.8473C35.0752 22.8571 35.2902 22.8241 35.4927 22.7503C35.9017 22.6014 36.2351 22.2953 36.4195 21.8994C36.604 21.5035 36.6244 21.0502 36.4762 20.6391C35.8078 18.7858 33.7907 17.6346 31.212 17.6346C27.9724 17.6346 25.7099 19.4425 25.7099 22.0312C25.7099 25.5423 28.988 26.0812 30.9465 26.4032C33.3332 26.7955 33.4338 27.0302 33.4338 27.5236C33.4338 28.3937 31.9803 28.6236 31.212 28.6236C29.9774 28.6236 29.1809 28.2053 29.0322 27.7922C28.8823 27.3836 28.5776 27.0513 28.1847 26.8677C27.7918 26.6841 27.3426 26.6643 26.9352 26.8124C26.5277 26.9605 26.1951 27.2646 26.0101 27.6583C25.825 28.052 25.8025 28.5033 25.9474 28.9137C26.6151 30.7681 28.6322 31.9202 31.212 31.9202C34.4517 31.9202 36.7144 30.1123 36.7144 27.5236C36.7146 24.0107 33.4353 23.4716 31.4762 23.1496ZM61.6564 23.1496C59.2712 22.7576 59.1706 22.5233 59.1706 22.0312C59.1706 21.1611 60.6239 20.9312 61.3922 20.9312C62.6265 20.9312 63.423 21.3495 63.5722 21.7624C63.6455 21.966 63.758 22.153 63.9033 22.3128C64.0486 22.4726 64.2238 22.6021 64.4189 22.6939C64.614 22.7856 64.8252 22.8378 65.0404 22.8475C65.2556 22.8572 65.4706 22.8242 65.6731 22.7503C66.082 22.6013 66.4154 22.2952 66.5997 21.8992C66.7841 21.5033 66.8044 21.0499 66.6561 20.6389C65.9876 18.7858 63.9707 17.6346 61.3922 17.6346C58.1525 17.6346 55.89 19.4425 55.89 22.0312C55.89 25.5423 59.1682 26.0812 61.1267 26.4032C63.5134 26.7955 63.614 27.0302 63.614 27.5236C63.614 28.3937 62.1605 28.6236 61.3922 28.6236C60.1574 28.6236 59.3609 28.2051 59.2119 27.7919C59.1387 27.5884 59.0262 27.4013 58.881 27.2414C58.7358 27.0815 58.5607 26.9519 58.3656 26.8601C58.1706 26.7683 57.9594 26.7159 57.7442 26.7061C57.529 26.6963 57.314 26.7292 57.1115 26.803C56.7024 26.9518 56.369 27.2578 56.1845 27.6537C55.9999 28.0495 55.9795 28.5029 56.1275 28.9139C56.7955 30.7684 58.8126 31.9202 61.3922 31.9202C64.6318 31.9202 66.8945 30.1123 66.8945 27.5236C66.8945 24.0107 63.6155 23.4716 61.6564 23.1496ZM51.5365 17.7364C51.2218 17.6197 50.8791 17.6029 50.5546 17.688C50.23 17.7732 49.9393 17.9563 49.7215 18.2126L46.3021 22.2382L42.8827 18.2126C42.665 17.956 42.3742 17.7727 42.0496 17.6874C41.725 17.6021 41.3821 17.6189 41.0673 17.7356C40.7525 17.8523 40.4809 18.0632 40.2891 18.3399C40.0973 18.6166 39.9946 18.9457 39.9949 19.2829V30.2717C39.9949 31.182 40.7291 31.92 41.6352 31.92C42.5413 31.92 43.2755 31.182 43.2755 30.2717V23.7529L45.0546 25.8474C45.2086 26.0286 45.3999 26.1742 45.6152 26.274C45.8306 26.3738 46.0649 26.4254 46.3021 26.4254C46.5392 26.4254 46.7736 26.3738 46.9889 26.274C47.2043 26.1742 47.3956 26.0286 47.5496 25.8474L49.3287 23.7529V30.2717C49.3287 31.182 50.0629 31.92 50.969 31.92C51.8751 31.92 52.6093 31.182 52.6093 30.2717V19.2829C52.6093 18.9458 52.5064 18.6168 52.3146 18.3403C52.1228 18.0638 51.8512 17.853 51.5365 17.7364Z" fill="#957255"/>
<path d="M67.8155 7.13127C62.0531 2.53247 54.414 0 46.3048 0C38.1955 0 30.5559 2.53269 24.794 7.13127C18.9209 11.8186 15.6865 18.0846 15.6865 24.7753C15.6865 36.5194 25.7397 46.535 39.7765 48.9868C40.0319 52.6482 38.714 56.2829 36.1375 58.8967C35.9096 59.1278 35.755 59.4215 35.6929 59.7408C35.6309 60.0601 35.6643 60.3907 35.7889 60.691C35.9135 60.9913 36.1237 61.2478 36.3931 61.4282C36.6625 61.6086 36.979 61.7049 37.3027 61.705C44.8038 61.705 51.2453 56.324 52.7637 48.9987C66.8375 46.5677 76.9232 36.5392 76.9232 24.7753C76.9234 18.0849 73.6888 11.8186 67.8155 7.13127ZM51.0775 45.9255C50.6658 45.9826 50.291 46.1946 50.0289 46.5187C49.7668 46.8428 49.6368 47.2548 49.6653 47.6714L49.6671 47.6943C48.9121 52.5467 45.4647 56.4279 41.0091 57.8369C42.7393 54.7542 43.4169 51.1868 42.938 47.6804L42.9387 47.671C42.9672 47.2544 42.8373 46.8424 42.5752 46.5183C42.3131 46.1943 41.9384 45.9822 41.5267 45.9251C28.4549 44.1095 18.9673 35.2148 18.9673 24.7755C18.9673 12.932 31.2308 3.29685 46.305 3.29685C61.3793 3.29685 73.6431 12.932 73.6431 24.7755C73.6429 35.2166 64.1529 44.1117 51.0775 45.9255Z" fill="#957255"/>
</g>
</svg>
