<svg width="18" height="18" viewBox="0 0 18 18" fill="none" xmlns="http://www.w3.org/2000/svg">
<path d="M16.418 7.41797H15.8555V6.89062C15.8555 3.11063 12.78 0 9 0C5.22 0 2.14453 3.11063 2.14453 6.89062V7.41797H1.58203C0.709664 7.41797 0 8.12763 0 9V12.1641C0 13.0364 0.709664 13.7812 1.58203 13.7812H3.72656C4.01804 13.7812 4.25391 13.5454 4.25391 13.2539V7.94531C4.25391 7.65383 4.01804 7.41797 3.72656 7.41797H3.19922V6.89062C3.19922 3.69207 5.80145 1.05469 9 1.05469C12.1986 1.05469 14.8008 3.69207 14.8008 6.89062V7.41797H14.2734C13.982 7.41797 13.7461 7.65383 13.7461 7.94531V13.2539C13.7461 13.5454 13.982 13.7812 14.2734 13.7812H14.8008V14.3086C14.8008 15.181 14.0911 15.8906 13.2188 15.8906H10.4849C10.2665 15.2781 9.6866 14.8359 9 14.8359C8.12763 14.8359 7.41797 15.5456 7.41797 16.418C7.41797 17.2903 8.12763 18 9 18C9.6866 18 10.2665 17.5578 10.4849 16.9453H13.2188C14.6726 16.9453 15.8555 15.7624 15.8555 14.3086V13.7812H16.418C17.2903 13.7812 18 13.0364 18 12.1641V9C18 8.12763 17.2903 7.41797 16.418 7.41797Z" fill="#957255"/>
</svg>
