<svg width="9" height="13" viewBox="0 0 9 13" fill="none" xmlns="http://www.w3.org/2000/svg">
<path d="M3.57456 7.89394L3.56271 7.90314C3.56271 8.29885 3.52239 8.69686 3.40619 9.07876C3.2926 9.46733 3.09791 9.83336 2.99618 10.2268C2.80172 10.9952 3.02464 11.814 3.41117 12.4906C2.5717 12.2145 1.77017 11.8163 1.16783 11.1723C0.641142 10.6087 0.269069 9.93459 0.100699 9.19172C-0.120078 8.21626 0.0319288 7.25207 0.461152 6.35506C0.665093 5.93152 0.895119 5.51741 1.04452 5.07132C1.19154 4.6296 1.28166 4.16948 1.36489 3.71396C1.67097 4.16203 1.89556 4.65771 2.02889 5.17945C3.06968 3.82699 3.63872 2.18774 3.65329 0.5C4.44382 0.939251 5.1259 1.54073 5.65184 2.26238C6.17778 2.98402 6.53488 3.80842 6.69817 4.67791C7.12526 4.12577 7.18692 3.42408 7.13214 2.7546C7.28628 2.93198 7.44066 3.1112 7.57796 3.29985C8.65956 4.78834 9.25241 6.66794 8.8967 8.48543C8.71884 9.39417 8.29887 10.2523 7.68017 10.9538C7.0802 11.6347 6.28579 12.1273 5.4558 12.5C5.65524 12.1227 5.82251 11.7302 5.95592 11.3265C6.49897 9.67692 5.88241 7.77454 4.55443 6.64471C4.73726 7.12554 4.81315 7.64548 4.74675 8.15621C4.67561 8.69456 4.42424 9.19816 4.19872 9.68819C4.0773 9.04632 3.9943 8.42538 3.57456 7.89394Z" fill="#D23A35"/>
</svg>
