<svg width="42" height="42" viewBox="0 0 42 42" fill="none" xmlns="http://www.w3.org/2000/svg">
<path d="M38.6842 0H3.31579C1.48453 0 0 1.48453 0 3.31579V38.6842C0 40.5155 1.48453 42 3.31579 42H38.6842C40.5155 42 42 40.5155 42 38.6842V3.31579C42 1.48453 40.5155 0 38.6842 0Z" fill="#03A9F4"/>
<path d="M34.6021 12.564C33.5789 13.0109 32.4965 13.3078 31.3885 13.4455C32.5565 12.7528 33.4296 11.6555 33.8422 10.3618C32.749 11.0107 31.5528 11.4677 30.3053 11.713C29.541 10.8955 28.5483 10.3269 27.4564 10.0813C26.3645 9.83564 25.2239 9.92424 24.1831 10.3356C23.1422 10.7469 22.2492 11.4619 21.6203 12.3877C20.9913 13.3134 20.6554 14.4069 20.6564 15.5261C20.6525 15.9533 20.696 16.3796 20.7863 16.7972C18.5674 16.6882 16.3964 16.1123 14.4153 15.1072C12.4341 14.1021 10.6872 12.6903 9.28877 10.9642C8.56996 12.1921 8.34727 13.6483 8.6662 15.0349C8.98514 16.4216 9.82163 17.6341 11.0047 18.4247C10.1217 18.4009 9.25731 18.1649 8.48469 17.7367V17.7974C8.48718 19.0846 8.9327 20.3317 9.74638 21.329C10.5601 22.3263 11.6923 23.0132 12.9527 23.274C12.4757 23.3993 11.9842 23.4607 11.491 23.4564C11.1359 23.463 10.7811 23.4315 10.4327 23.3624C10.7938 24.4694 11.489 25.4373 12.4228 26.133C13.3565 26.8287 14.4828 27.2181 15.6468 27.2474C13.6742 28.7893 11.2425 29.6267 8.7389 29.6265C8.29281 29.6303 7.84696 29.6045 7.4043 29.5492C9.9571 31.1951 12.9327 32.0647 15.9701 32.0526C26.2352 32.0526 31.8472 23.5503 31.8472 16.181C31.8472 15.9351 31.8472 15.6974 31.8278 15.4598C32.9208 14.671 33.8609 13.6898 34.6021 12.564Z" fill="white"/>
</svg>
