<svg width="42" height="42" viewBox="0 0 42 42" fill="none" xmlns="http://www.w3.org/2000/svg">
<path d="M36.2727 0H5.72727C2.56419 0 0 2.56419 0 5.72727V36.2727C0 39.4358 2.56419 42 5.72727 42H36.2727C39.4358 42 42 39.4358 42 36.2727V5.72727C42 2.56419 39.4358 0 36.2727 0Z" fill="#29A71A"/>
<path d="M30.2586 11.7409C28.0738 9.5342 25.1723 8.18092 22.0775 7.92513C18.9827 7.66934 15.8984 8.52789 13.3809 10.3459C10.8634 12.1639 9.07836 14.8217 8.34787 17.8399C7.61738 20.8581 7.98948 24.038 9.39705 26.806L8.01535 33.5141C8.00101 33.5808 8.0006 33.6498 8.01415 33.7168C8.0277 33.7837 8.05492 33.8471 8.0941 33.903C8.15149 33.9879 8.23341 34.0533 8.32893 34.0904C8.42444 34.1275 8.529 34.1345 8.62864 34.1106L15.2031 32.5524C17.9633 33.9243 21.1207 34.2725 24.1136 33.5349C27.1064 32.7974 29.7405 31.0219 31.5472 28.5246C33.3538 26.0272 34.2159 22.9698 33.98 19.8965C33.744 16.8232 32.4254 13.9332 30.2586 11.7409ZM28.2088 28.1018C26.697 29.6092 24.7504 30.6043 22.6432 30.9468C20.536 31.2893 18.3744 30.962 16.4631 30.0109L15.5467 29.5575L11.5161 30.512L11.5281 30.4619L12.3633 26.4051L11.9147 25.5197C10.9381 23.6018 10.5936 21.4239 10.9305 19.2981C11.2674 17.1723 12.2685 15.2077 13.7903 13.6858C15.7026 11.7741 18.2957 10.7003 20.9996 10.7003C23.7034 10.7003 26.2966 11.7741 28.2088 13.6858C28.225 13.7044 28.2426 13.722 28.2613 13.7383C30.1498 15.6548 31.204 18.2402 31.1942 20.9308C31.1843 23.6215 30.1112 26.1991 28.2088 28.1018Z" fill="white"/>
<path d="M27.852 25.1265C27.358 25.9044 26.5777 26.8566 25.5969 27.0928C23.8787 27.5081 21.2418 27.1072 17.9605 24.0478L17.92 24.012C15.0348 21.3369 14.2855 19.1104 14.4669 17.3445C14.5671 16.3423 15.4023 15.4354 16.1063 14.8436C16.2176 14.7486 16.3496 14.681 16.4917 14.6461C16.6338 14.6113 16.7821 14.6102 16.9247 14.6429C17.0674 14.6756 17.2003 14.7412 17.3131 14.8345C17.4258 14.9277 17.5151 15.0461 17.5739 15.1801L18.6359 17.5665C18.7049 17.7212 18.7305 17.8918 18.7099 18.06C18.6893 18.2281 18.6233 18.3875 18.5189 18.521L17.982 19.2178C17.8668 19.3617 17.7973 19.5368 17.7824 19.7205C17.7675 19.9042 17.8079 20.0882 17.8985 20.2487C18.1992 20.7761 18.9198 21.5517 19.7193 22.27C20.6166 23.0814 21.6117 23.8235 22.2417 24.0765C22.4102 24.1453 22.5956 24.1621 22.7738 24.1247C22.952 24.0873 23.1149 23.9973 23.2416 23.8665L23.8644 23.2389C23.9846 23.1203 24.134 23.0358 24.2975 22.9939C24.461 22.952 24.6327 22.9542 24.7951 23.0002L27.3175 23.7161C27.4566 23.7588 27.5841 23.8327 27.6903 23.9323C27.7965 24.0318 27.8785 24.1543 27.9301 24.2904C27.9817 24.4265 28.0015 24.5726 27.9879 24.7175C27.9744 24.8624 27.9279 25.0023 27.852 25.1265Z" fill="white"/>
</svg>
